<svg version="1.2" xmlns="http://www.w3.org/2000/svg" viewBox="0 0 793 636" width="793" height="636">
	<title>90-ai</title>
	<defs>
		<radialGradient id="g1" cx="458.5" cy="62.7" r="8.6" gradientUnits="userSpaceOnUse">
			<stop offset="0" stop-color="#b7bfcf"/>
			<stop offset=".8" stop-color="#aab0bf"/>
		</radialGradient>
		<radialGradient id="g2" cx="278.8" cy="160.1" r="300.2" gradientUnits="userSpaceOnUse">
			<stop offset="0" stop-color="#e0512d"/>
			<stop offset="1" stop-color="#bd1f13"/>
		</radialGradient>
		<radialGradient id="g3" cx="465.4" cy="95.8" r="91.4" gradientUnits="userSpaceOnUse">
			<stop offset="0" stop-color="#b7bfcf"/>
			<stop offset=".8" stop-color="#aab0bf"/>
		</radialGradient>
		<radialGradient id="g4" cx="427.8" cy="95.8" r="66.8" gradientUnits="userSpaceOnUse">
			<stop offset="0" stop-color="#b7bfcf"/>
			<stop offset=".8" stop-color="#aab0bf"/>
		</radialGradient>
		<linearGradient id="g5" x1="368.2" y1="134.2" x2="537.7" y2="134.2" gradientUnits="userSpaceOnUse">
			<stop offset="0" stop-color="#84929d"/>
			<stop offset=".1" stop-color="#aab0bf"/>
			<stop offset=".7" stop-color="#c4ccde"/>
		</linearGradient>
		<linearGradient id="g6" x1="160.8" y1="362.5" x2="590.5" y2="362.5" gradientUnits="userSpaceOnUse">
			<stop offset="0" stop-color="#bf643c"/>
			<stop offset=".8" stop-color="#703c2f"/>
			<stop offset="1" stop-color="#8a6156"/>
		</linearGradient>
		<radialGradient id="g7" cx="474.2" cy="278.3" r="18.9" gradientUnits="userSpaceOnUse">
			<stop offset="0" stop-color="#b7bfcf"/>
			<stop offset=".8" stop-color="#aab0bf"/>
		</radialGradient>
		<radialGradient id="g8" cx="481.9" cy="296.5" r="4.9" gradientUnits="userSpaceOnUse">
			<stop offset="0" stop-color="#b7bfcf"/>
			<stop offset=".8" stop-color="#aab0bf"/>
		</radialGradient>
	</defs>
	<style>
		.s0 { opacity: .5;fill: #ffffff } 
		.s1 { fill: #c8cdd6 } 
		.s2 { fill: url(#g1) } 
		.s3 { fill: #ec8f46 } 
		.s4 { fill: #bcc1c9 } 
		.s5 { fill: #a9a8ba } 
		.s6 { opacity: .6;mix-blend-mode: multiply;fill: #9390a3 } 
		.s7 { fill: #5f341a } 
		.s8 { fill: #292a2e } 
		.s9 { opacity: .4;mix-blend-mode: screen;fill: #8e4623 } 
		.s10 { opacity: .7;mix-blend-mode: multiply;fill: #9390a3 } 
		.s11 { fill: url(#g2) } 
		.s12 { fill: #423e3f } 
		.s13 { fill: #353333 } 
		.s14 { fill: #e9ebf2 } 
		.s15 { fill: #f9a769 } 
		.s16 { fill: #dce0ea } 
		.s17 { fill: #bd1f13 } 
		.s18 { fill: #8e4623 } 
		.s19 { fill: #942118 } 
		.s20 { fill: #f2f0f7 } 
		.s21 { fill: #a1aab7 } 
		.s22 { opacity: .6;fill: #f6f5ff } 
		.s23 { fill: url(#g3) } 
		.s24 { fill: #8e8c99 } 
		.s25 { opacity: .4;fill: #bd1f13 } 
		.s26 { opacity: .5;mix-blend-mode: screen;fill: url(#g4) } 
		.s27 { fill: url(#g5) } 
		.s28 { mix-blend-mode: multiply;fill: #c8cdd6 } 
		.s29 { fill: #754323 } 
		.s30 { fill: #da803a } 
		.s31 { fill: #35312d } 
		.s32 { fill: #ee9047 } 
		.s33 { fill: #764525 } 
		.s34 { fill: #2e303e } 
		.s35 { opacity: .2;mix-blend-mode: multiply;fill: #754323 } 
		.s36 { fill: #352c2c } 
		.s37 { opacity: .3;mix-blend-mode: multiply;fill: #716a89 } 
		.s38 { fill: #3d2d2d } 
		.s39 { fill: #959eab } 
		.s40 { fill: #2d2020 } 
		.s41 { fill: #ffffff } 
		.s42 { fill: #6b3426 } 
		.s43 { fill: #823c23 } 
		.s44 { fill: #8e3d24 } 
		.s45 { fill: #784639 } 
		.s46 { fill: url(#g6) } 
		.s47 { fill: #924b33 } 
		.s48 { fill: #698c81 } 
		.s49 { fill: #89aba8 } 
		.s50 { fill: #77988f } 
		.s51 { fill: #9fc6c3 } 
		.s52 { mix-blend-mode: multiply;fill: #c4bfd1 } 
		.s53 { fill: #895637 } 
		.s54 { fill: #2f3743 } 
		.s55 { fill: #605757 } 
		.s56 { fill: #b4bbc9 } 
		.s57 { fill: #152231 } 
		.s58 { fill: #c4bfd1 } 
		.s59 { fill: #fead78 } 
		.s60 { fill: url(#g7) } 
		.s61 { fill: #ba6831 } 
		.s62 { fill: #3e211e } 
		.s63 { fill: #ffaf78 } 
		.s64 { fill: #ffb888 } 
		.s65 { fill: #2c0f0c } 
		.s66 { fill: #40221f } 
		.s67 { fill: #341510 } 
		.s68 { fill: #4b2c24 } 
		.s69 { fill: #d5c9c4 } 
		.s70 { fill: #423937 } 
		.s71 { fill: #8da30c } 
		.s72 { fill: #a3b218 } 
		.s73 { fill: #aeaf16 } 
		.s74 { fill: #feb787 } 
		.s75 { fill: #ea8f46 } 
		.s76 { fill: #3e211d } 
		.s77 { fill: #4b2822 } 
		.s78 { fill: #eb914a } 
		.s79 { fill: #eb9048 } 
		.s80 { fill: #a4b21f } 
		.s81 { opacity: .5;mix-blend-mode: multiply;fill: url(#g8) } 
		.s82 { fill: #2ca6db } 
		.s83 { fill: #7d890a } 
		.s84 { fill: #c6ced9 } 
		.s85 { fill: #874530 } 
		.s86 { fill: #6b392f } 
		.s87 { opacity: .6;fill: #4d665e } 
	</style>
	<g id="Layer 1">
		<g id="&lt;Group&gt;">
			<g id="&lt;Group&gt;">
				<path id="&lt;Path&gt;" class="s0" d="m86.6 555.8h-9.6v-2h9.6z"/>
				<path id="&lt;Path&gt;" class="s0" d="m67.3 555.8h-9.6v-2h9.6z"/>
			</g>
			<g id="&lt;Group&gt;">
				<path id="&lt;Path&gt;" class="s0" d="m86.6 619.6h-9.6v-2h9.6z"/>
				<path id="&lt;Path&gt;" class="s0" d="m67.3 619.6h-9.6v-2h9.6z"/>
			</g>
		</g>
		<g id="&lt;Group&gt;">
			<g id="&lt;Group&gt;">
			</g>
			<g id="&lt;Group&gt;">
				<g id="&lt;Group&gt;">
				</g>
				<g id="&lt;Group&gt;">
				</g>
			</g>
			<g id="&lt;Group&gt;">
				<g id="&lt;Group&gt;">
				</g>
				<g id="&lt;Group&gt;">
				</g>
			</g>
			<g id="&lt;Group&gt;" style="opacity: .5">
			</g>
			<g id="&lt;Group&gt;" style="opacity: .5">
			</g>
		</g>
		<g id="&lt;Group&gt;">
			<g id="&lt;Group&gt;">
				<path id="&lt;Path&gt;" class="s1" d="m233.8 132.4c1.1-1.8 3.9-2.2 7.2-1.7 3.3 0.5-0.3 5.3-0.3 5.3l-2.8 0.4-2.2-1.1z"/>
				<path id="&lt;Path&gt;" class="s2" d="m458.4 68.3v1.9h-3.8v-2c-1.1-0.6-1.8-1.8-1.8-3.2 0-2.1 1.7-3.8 3.8-3.8 2.1 0 3.7 1.7 3.7 3.8 0 1.4-0.8 2.7-1.9 3.3z"/>
				<path id="&lt;Path&gt;" class="s3" d="m438.7 158.9c0.6 0.5-5.4 2.7-5.9 3 0.1 0.4 0.1 0.8-0.2 1.3-1.7 3.2-4.1 5.9-6.6 8.6q0 0.1 0 0.2c-0.2 1.3-1.5 1.6-2.5 1.2-1.2-0.3-4-1.6-2.9-2.8 0 0 1.8-3.6 1.8-3.6 2.9-5.2 4.8-10.9 7.5-17.9q0.4-1.3 1-2.6 0.2-0.7 0.5-1.4c0.1-0.5 0.5-1 1-1.2q0.3-0.3 0.4-0.5c1.1-1.2 2.7-0.6 3.2 0.7 2.6 5.4-0.9 12.2 2.7 15z"/>
				<path id="&lt;Path&gt;" class="s4" d="m360.1 196.7c0 0 11.6 43.7 12.2 56.3 0.2 4.4 0.4 7.2-9.6 7-5.4-0.1-10.1 1.1-14.1 1.4-5.4 0.5-10.7-0.6-12.2-1.5-2.7-1.5 5-29.3 5-29.3l2-22.2c0 0 2.2-8.7 2.7-9.3 0.6-0.6 6.8-2.4 6.8-2.4z"/>
				<path id="&lt;Path&gt;" class="s5" d="m234.5 551.7l17.8 2.1v24-0.2l-23.9 5.2v-22.8z"/>
				<path id="&lt;Path&gt;" class="s6" d="m252.3 555.1v12.5c-9.7 0-23.9 6-23.9 6v-13.6l4.4-7.1z"/>
				<g id="&lt;Group&gt;">
					<path id="&lt;Path&gt;" class="s7" d="m228.8 596.7c-2.7 0-3.5-0.5-3.7-3.1-0.6-5.9 0-11.7 1.9-17.3 0.7-2 1.3-2 2.9-0.6 3.6 3.1 7.7 3.2 12 2.2 2.4-0.5 4.7-1.5 6.8-2.7 2.8-1.6 5.3-1.6 8.2 0 4.5 2.6 9.3 4.7 14 6.9 3.5 1.6 7.3 1.7 11 2.2 6.7 0.9 13.3 2.1 20.1 2 2 0 3.2 1.8 2.6 3.7-0.5 1.9-1.7 3.2-3.5 4.1-7.9 0.8-15.8 0.8-23.8 0.4-5.6-0.3-11.3-0.4-16.9-1-9.4-0.9-18.8 1.1-28.2 0.4-2.2-0.1-2.5 1.6-3.4 2.8z"/>
					<path id="&lt;Path&gt;" class="s8" d="m224.5 597c0.1-3.3-0.1-3.7 3.1-3.7 6.4 0.1 17.4-0.5 23.7-0.6 9.3-0.2 18.6 1 27.9 1.3 5.6 0.2 11.3 0.4 16.9-0.2 1.6-0.2 3.9-0.3 6.3-0.5 0.1 1.1-0.9 1.9-2 2.4-2.4 1.2-6.2 1.3-8.5 1.3-20.4-0.1-66.8 0-67.4 0z"/>
					<path id="&lt;Path&gt;" class="s9" d="m304.6 590c-0.4 1.7-1.5 3-3.1 3.9h-1.2c0 0 2-2.7 2.1-4.8 0.2-2.1-4.1-1.3-11.8-1.4-7.6-0.1-17.7-0.9-26.5-3.7-6.8-2.3-13.7-6.4-16.6-8.2q0.6-0.3 1.2-0.6c2.8-1.6 5.3-1.6 8.2 0 4.5 2.6 9.3 4.7 14 6.9 3.5 1.6 7.3 1.7 11 2.2 6.7 0.9 13.3 2.1 20.1 2 2 0 3.2 1.8 2.6 3.7z"/>
				</g>
				<path id="&lt;Path&gt;" class="s5" d="m215.7 551.7l17.8 2.1v24l-1.5-0.2-22.4 5.2v-22.8z"/>
				<path id="&lt;Path&gt;" class="s10" d="m233.5 558.9v8.7c-11.4-0.4-23.9 6-23.9 6v-13.6l4.4-3.3z"/>
				<g id="Nrta00 3 ">
					<g id="&lt;Group&gt;">
						<path id="&lt;Path&gt;" class="s11" d="m203.7 145.8c7.9-5.2 16.6-8.3 25.9-10.1 3.3-0.4 6.3 0.6 9.1 2.3 7.7 4.8 12.8 11.7 16.6 19.8 3.7 7.6 7.1 15.3 9.3 23.5 0.4 1.6 1.4 2.8 2.4 3.9 1.3 1.8 1.5 1.8 2.4 0 2.3-4.9 3.5-10.1 3.8-15.5 0.4-6.5 0.4-13.1-1.8-19.5-1.4-4.2-2.9-8.4-6.9-11.1-1-0.7-2-1.3-2.2-2.7 0.2-0.5 0.6-0.6 1.1-0.3 7.7 1.2 14.8 4 20.9 8.9 2.9 1.7 4.5 4.5 6.3 7.2q2.3 3.4 3.6 7.2c1.9 5.7 2.6 11.7 3.7 17.6 1.8 9.1 2.5 18.3 2.9 27.6 0.1 2.6 0.1 5.1-1 7.5-1.3 19.6-4.3 39-9 58.2-2.2 9-3.8 18.2-6 27.3-1.2 5.2-3.5 10.1-5.9 14.9-0.2-0.1 0.3 0 0 0-0.6-0.3-1.3-0.3-1.9-0.3-11.4 0.7-22.4-1.2-33.5-3.2-7.9-1.4-15.4-3.7-22.8-6.4q-1.1-0.4-2.2-0.9c-4.6-2.1-5.4-3.3-4.8-8.3 0.2-2.2 0.5-4.4 1-6.5 2.7-11.3 4.2-22.7 5-34.3q1.5-20.2 2.3-40.4c0.4-7.4-0.2-14.7-0.4-22.1-0.3-6.3 0.5-12.5 0.4-18.8-0.1-4.7-0.3-9.2-1.6-13.7-1.4-4.6-3.8-8.5-8-11.1-0.8-0.5-1.7-0.9-2.7-0.8-2-0.3-6.7 2.7-8.6 2.7-0.4-0.1 1.2-1.6 2.6-2.6z"/>
						<path id="&lt;Path&gt;" class="s12" d="m279.6 312q0 0.3 0.1 0.6c-1.8 17.4-5.5 34.5-7.4 51.8-2.2 18.9-5.2 30.6-7.5 49.5-0.8 6.7-0.6 20.8-1.4 27.5-1.4 11.1-3.1 29.3-4.2 40.4-1.1 11.6-1.9 23.3-2.5 35-0.7 14.5-1.3 32.8-2 47.3 0 1.5-0.4 2-2 2q-20.7-0.1-41.4-0.1c-1.4 0-2.2-0.2-1.8-1.8 1.9 0.7 3.8 0.6 5.8 0.7 5.4 0 8.6-0.4 4.9-0.5-3.4 0-4.1-0.9-3.8-4.3 0.5-4.2 0.3-12.2 0.5-16.4 0.9-14.5 2-29 1.4-43.6-0.2-8.1-0.8-23.3-1.5-31.4-0.8-10.6-2.1-21.2-2.9-31.8-0.8-12-0.2-23.9-0.3-35.8-0.2-9.5-0.1-19.1-0.1-28.7 0.1-14.5 0.1-29.1 0-43.6 0-6.4 0.8-12.8 1-19.2 0-2.1 0.7-2.5 3-2.4 8.4 0.4 16.6 2.2 25 3.3 11.8 1.7 23.8 2.4 35.8 1.3 0.4 0 2.1-2.7 1.3 0.2z"/>
						<path id="&lt;Path&gt;" class="s13" d="m214.3 292.8c-0.2 1.4-0.1 2.9 0 4.4 0.1 1.5 1 2.3 2.3 2.9 7.4 3.4 15.1 5.9 23 7.5 6.6 1.3 13.3 2.5 20 3.5 5.8 0.8 11.8 0.5 17.7 0.5 0.7 0 1.6-0.3 2.3 0.4-4.6 0.7-9.1 1-13.7 0.9-11.6-0.3-23.1-1.1-34.5-3.6-3.7-0.8-7.6-0.8-11.5-1.2-0.5 0-1 0-1.5 0-3.3-0.3-3.1-0.3-3.3 3-1.4 15.9-0.8 31.9-0.8 47.9-0.2 21.8 0 43.6-0.1 65.5 0 8.9 0.9 17.7 1.7 26.5 0.6 7.2 1.3 21.7 1.9 28.9 1 11.8 1.3 23.6 1.3 35.4-0.1 10.4-1.2 20.7-1.8 31.1-0.1 2.7 0 9.1 0 11.7 0 0.7 0 1.5-0.1 2.2-0.5 3.2 5.8 4.8 16.1 5.7-7.3 0-15.4-0.1-22.7 0-1.1 0-1.2-0.5-1.6-1.7-0.6-4.2-0.5-12.1-0.5-16.3 0.1-17.1 0-34.3-0.5-51.5-0.5-15.8-1.4-38.7-2-54.5-0.4-9.6-0.7-26.4-1-36.1-0.4-16.8-1.1-26.4-2.5-43.1-0.8-9.9-1.7-19.7-3.1-29.5-1.8-12-2.6-24-3.1-36.2-0.1-2.3 0.2-4.6 0.3-7-0.9-2.8-0.1-5.7 0.2-8.6z"/>
						<path id="&lt;Path&gt;" class="s14" d="m293.7 159c-2.3-5.2-5.3-9.9-9.2-14 2.4 0.8 4.2 2.6 6.2 4.2 9.2 6.8 15.8 16.1 24 24 7.1 6.7 14.9 12.6 22.7 18.4 4.1 3 8.3 5.7 11.9 9.1 0.1 2.2-1.2 3.9-2.2 5.6-1.1 2.1-1.8 4.3-2.2 7 1.1-2.6 1.8-4.8 3.1-6.9 0.4-0.7 0.8-1.6 1.7-1.3 0.8 0.2 0.7 1.2 0.7 1.9 0 1.5 0 1.5 0.9 2.6 0.5-2.7 1-5.4 1.3-8 3-3.5 7.3-4.7 11.2-6.5 11.1-5.3 22.9-9 34.1-14.1 4.5-2.1 9.4-3.8 14.4-4.9-1.2 4.5-0.1 9.1-0.8 13.7-0.1 1 0.1 2 0.3 3 0.2 2.6-0.1 5.1 0.3 7.7 0.2 1.4-0.7 2.3-2 2.7-11.6 3.8-22.9 8.5-34.3 12.8q-15.7 5.9-31.3 11.9c-2.5 0.9-4.8 0.6-6.8-1.2-9.9-9.1-19.7-18.2-28.6-28.3-4.1-4.6-6.3-9.8-7.8-15.5-2.1-8.1-4.5-16.1-7.6-23.9z"/>
						<path id="&lt;Path&gt;" class="s1" d="m201 263.3c-0.4 3.8-0.9 7.7-2.1 11.3-1.6 5.1-1.7 10.4-2.3 15.5-2.2-1.4-4.9-1.6-7.3-2.8-13.1-6.4-25.8-13.7-38.2-21.3-11.4-7.9 18.7-65.1 32.7-93.7 4.1-8.5 9-16.2 15.6-22.9 3.5-3.9 9.4-5.1 12.1-3.5 2.8 1.6 4.4 4.1 5.4 6.9-0.8 0.3-1.2-0.4-1.6-0.8q-1.2-1.4-2.7-2.2c-2.9-1.5-4.9-0.9-6.4 1.9q-11 20.6-20.8 41.8c-2.7 6.1-5.4 12.3-7.8 18.6-3.2 8.3-5.2 17-6.7 25.8 0 0.4-0.1 0.9-0.4 1.6 6.9-8.6 13.9-16.6 20-25.3 7.2-10.3 13.9-20.9 20.9-31.4 1.3-2 2.8-3.9 4.1-5.9 0.4-0.6 0.7-1.5 1.8-1.3-0.5 2.2-0.6 4.1-2 5.8-4.3 5.6-7 12.2-9.4 18.6-1.1 2.8-1.7 5.9-1.1 3-0.2 1.6-0.9 3.2-1.6 4.6-4.8 9.8-9.6 19.5-14.6 29.2-2 3.7-4.3 7.2-6.6 10.8-1.2 1.8-1.2 2 0.8 2.9 4.9 2.4 9.7 5 14.1 8.4 1.6 1.2 3.2 2.5 4.1 4.4z"/>
						<path id="&lt;Path&gt;" class="s1" d="m293.7 159c2.7 4.7 4.2 9.9 5.7 15 1.4 4.9 2.7 9.7 4.1 14.5 1.4 4.4 4.5 7.7 7.4 11 4.9 5.8 10.4 10.9 15.7 16.2 3.7 3.6 7.6 7.1 11.4 10.5 1.9 1.7 3.9 2.1 6.3 1.2q25.9-9.9 51.7-19.7 4.4-1.7 8.8-3.4c1.6-0.6 3.2-1.3 5-1.6 1.3-0.1 2-1 1.8-2.4-0.5-2.4-0.3-4.8-0.2-7.2 2.2-0.2 4.2-1 6-2.1 0.4-0.3 0.8-0.4 1.3-0.1 0.2 5.5 0 10.9-1.3 16.3-0.6 2.3-1.9 3.7-4 4.6-13.2 5.2-26.2 10.9-39.7 15.3-8.1 2.7-15.7 6.4-23.5 9.7-4.2 1.9-8.6 3.3-13.3 1.7-2.7-0.9-4.6-2.9-6.6-4.7-9.2-8.1-19.4-14.9-29-22.5-1.4-1-0.9 0.6-1.4 0.8 0.4-3.7 0.2-7.4 0.1-11.1-0.1-6.3-0.7-12.6-1.8-18.8-1.2-6.5-1.9-13.2-3.6-19.7q-0.4-1.8-0.9-3.5z"/>
						<path id="&lt;Path&gt;" class="s15" d="m452.3 155.4c3.6-2.6 7.3-5.1 10.7-7.9 2.8-2.4 6-2.3 9.6-2-2.4 3.5-5.4 6.3-8.4 9-0.1 0.3-0.3 0.5-0.2 0.7 0.2-0.1 0.5 0 0.7-0.1 4.5-2.2 8.6-4.9 12.3-7.9 3-2.5 6.2-1.7 9.4-1.8 0.9 0 0.5 0.7 0.3 1.1-0.5 1.2-1.6 1.7-2.8 1.9-1.9 0.4-3.3 1.4-4.6 2.7-2.4 2.5-4.9 4.8-7.3 7.3-2 1.9-4.2 3.4-6.9 4.1-5.6 1.3-10.3 4.6-15 7.7-2.1 1.4-4.1 3.1-6.5 4.1-3.1 0.7-5.6 3.1-8.6 4.2-4.4 1.6-8.4 4.2-12.8 5.9-2.5 1-3.5-0.7-5-3.1-0.8-1.3-1.6-2.6-2.3-4-0.3-0.7-0.8-1.4-0.3-2.2 3.4-3.3 6-7.4 10-10.1 1.5-1 2.9-2 4.7-2.5 3.3-0.9 6.3-2.3 9.4-3.6 1.2-0.4 2.1-1.2 2.9-2.2 2.7-3.8 5.8-7.1 9-10.4 0.7-0.7 5.1-1.4 6-0.9 1 0.6 0.1 1.2-0.1 1.6-1.6 2.7-3.4 5.3-5 7.9-0.2 0.4-0.2 0.7-0.5 1 0 0 0 0.1 0 0.1 0 0 0.1-0.1 0.2-0.1 0.3-0.3 0.9-0.1 1.1-0.5z"/>
						<path id="&lt;Path&gt;" class="s16" d="m265.1 138.2c3.7 3.4 6.7 8.2 7.9 12.8 4 16.1-1.9 38.1-5 38.1-2-0.6-3.6-6.3-4-7.9-2.2-8.3-5.7-16.1-9.4-23.8-3.6-7.4-8.4-13.8-15.4-18.4-3-2-5.4-3.4-9.6-3.3 2.7-1.4 5.7-1.4 8.7-1.7 3.8-0.2 7.7 0 11.5-0.1 10.6-0.2 14.6 3.6 15.3 4.3z"/>
						<path id="&lt;Path&gt;" class="s3" d="m414.6 175.1c0.8 2.7 2.6 4.8 3.9 7.3 0.5 1 2.9 1.4 3.5 1.2 6.8-2.6 12.7-5.9 18.6-8.9 0.9-0.4 1.9-1.3 3-0.4-7.5 4.1-14.2 9.4-21.3 14.1-1.2 0.8-2.9 1.1-3.8 2.5q-1.7 0.9-3.4 1.8c-1.2 0.7-2.5 1-3.9 0.4q0-0.1 0-0.2c-0.1-5.6-1.3-11.3 0.9-16.8q1.3-0.5 2.5-1z"/>
						<path id="&lt;Path&gt;" class="s1" d="m352.4 201.6c1.1 1.8-0.2 3.5-0.1 5.3 0 0.7-0.2 1.5-0.4 2.3 0 0.5 0.3 1.2-0.4 1.3-0.6 0.1-1.2-0.2-1.5-0.8-0.3-0.7-0.7-1.4-0.4-2.3 0.2-0.6 0.1-1.3 0.2-2.6-2.8 3.1-3.3 6.8-5.4 9.7-0.4-2.6 0.3-5 1.4-7.2 1.2-2.2 2.3-4.4 3.4-6.6 1 0.9 1.9 1.8 3.2 0.9z"/>
						<path id="&lt;Path&gt;" class="s13" d="m247 327.7c1.8 2.5 1.3 5.1 1.5 7.7 2.4-0.5 4-2.2 6.1-3 0.5-0.1 1-0.8 1.5-0.3 0.5 0.5 0 1.1-0.3 1.6-4.7 8.3-6.3 17.6-8.1 26.9-0.5 2.1-0.6 4.4-0.6 6.7-0.2 8.6-0.4 17.3-1.6 25.9-0.5 3.1-0.4 6.2-0.6 9.4-0.5 9-0.2 18.1-1.1 27-1.6 16.1-1.8 39.3-1.4 55.3 0.4 13.9 0.3 27.9 0.2 41.8 0 9-0.7 18.1-1.3 27.1-0.1 1.6-0.1 6.9-0.4 8.5-0.4 1.5 0.4 1.8 1.5 1.9 3.7 0.5 7.2 1.6 11 1.8-5.1 0-16.6 0.1-16.6 0.1 0 0 0-21.9 0.2-29.8 0.2-4.4 0-8.7 0-13.1 0.1-8.6 0.3-17.1 0.6-25.6 0.3-7.9-0.1-23 0.4-30.8 0.5-7.8 0.2-15.6 0.8-23.4 1.1-12.7 0.6-25.4 0.9-38.1 0.3-8.3 0.6-16.5 1.6-24.8 0.8-7.1 1.3-14.2 1.5-21.3 0.2-8.1 1-16.1 1.4-24.2 0.1-2.4 1.8-4.7 2.8-7.3z"/>
						<path id="&lt;Path&gt;" class="s16" d="m217.3 175.6c-3.5 4.2-6.3 8.8-9.2 13.2-6.9 10.4-13.5 21.1-21 31-4.5 5.8-9.2 11.5-13.8 17.2-1 1.2-2 2.5-3.4 4.2 0.6-4.8 1.4-8.9 2.3-13.1 2.6-11.7 7.1-22.8 12.2-33.6 4.3-9.2 8.7-18.5 13.2-27.6 2.4-4.9 5.1-9.7 7.7-14.6 2.5-4.8 6.7-5.2 10.3-0.9 0.4 0.5 0.6 1.2 1.3 1.4 3.3 7.5 4.1 15.1 0.4 22.8z"/>
					</g>
				</g>
				<g id="&lt;Group&gt;" style="opacity: .4">
					<path id="&lt;Path&gt;" class="s17" d="m257.2 311l-3.6-1.1c15.6-50.9 11.1-126 11-126.7l2.8 4.7 2.7-5.9c0 0.7 2.9 77.4-12.9 129z"/>
				</g>
				<g id="&lt;Group&gt;">
					<path id="&lt;Path&gt;" class="s18" d="m209.8 596.7c-2.7 0-3.5-0.5-3.7-3.1-0.5-5.9 0.1-11.7 2-17.3 0.6-2 1.3-2 2.9-0.6 3.5 3.1 7.6 3.2 11.9 2.2 2.4-0.5 4.7-1.5 6.8-2.7 2.8-1.6 5.3-1.6 8.2 0 4.5 2.6 9.3 4.7 14 6.9 3.5 1.6 7.3 1.7 11 2.2 6.7 0.9 13.4 2.1 20.2 2 1.9 0 3.1 1.8 2.6 3.7-0.5 1.9-1.8 3.2-3.6 4.1-7.9 0.8-15.8 0.8-23.7 0.4-5.7-0.3-11.3-0.4-16.9-1-9.5-0.9-18.8 1.1-28.3 0.4-2.2-0.1-2.5 1.6-3.4 2.8z"/>
				</g>
				<g id="&lt;Group&gt;">
					<path id="&lt;Path&gt;" class="s19" d="m226.9 304.2q-0.9-0.3-1.7-0.6 0.8 0.3 1.7 0.6z"/>
					<path id="&lt;Path&gt;" class="s19" d="m235.3 306.6q0 0-0.1 0-0.2-0.1-0.4-0.1 0.3 0 0.5 0.1z"/>
					<path id="&lt;Path&gt;" class="s19" d="m229.7 305.1q-0.1-0.1-0.3-0.1 0.2 0 0.3 0.1z"/>
				</g>
				<path id="&lt;Path&gt;" class="s9" d="m285.7 590c-0.5 1.7-1.6 3-3.2 3.9h-1.2c0 0 2-2.7 2.2-4.8 0.1-2.1-4.2-1.3-11.8-1.4-7.7-0.1-17.8-0.9-26.6-3.7-6.7-2.3-13.7-6.4-16.5-8.2q0.6-0.3 1.1-0.6c2.8-1.6 5.3-1.6 8.2 0 4.5 2.6 9.3 4.7 14 6.9 3.5 1.6 7.3 1.7 11 2.2 6.7 0.9 13.4 2.1 20.2 2 1.9 0 3.1 1.8 2.6 3.7z"/>
				<path id="&lt;Path&gt;" class="s8" d="m205.5 597c0.1-3.3-0.1-3.7 3.1-3.7 6.4 0.1 17.4-0.5 23.7-0.6 9.3-0.2 18.6 1 27.9 1.3 5.6 0.2 11.3 0.4 16.9-0.2 1.7-0.2 3.9-0.3 6.4-0.5 0 1.1-1 1.9-2.1 2.4-2.4 1.2-6.1 1.3-8.4 1.3-20.4-0.1-66.8 0-67.5 0z"/>
				<path id="&lt;Path&gt;" class="s17" d="m225 303.5c-15.8-5.5-28.4-13.4-28.4-13.4-0.9-2.8-0.1-5.7 0.2-8.6 0.4-4.6 2.4-9 2.9-13.6q0.3-2.4 0.7-4.8c0.4-4.4 1.5-8.7 1.9-13.2 0.6-6.3 1.1-12.7 1.7-19.1 0.5-6.2 0-12.5 0.5-18.7 0.4-1.4-2.1-7.8 4-19.7 1.6-3.9 7.7-15.1 8.3-17 3.4-7.4 2.6-14.7-0.2-22.1-0.8-2.1-1.9-4.7-3.5-6.3-0.5-0.5-1.6-1.1-1.6-1.1 0.1-0.4 0.1-0.3 0.5-0.1 4.5 1.8 6.8 5.6 8.4 9.8 1.6 4.2 2.4 8.7 2.2 13.3-0.2 5.6-0.2 11.2-0.3 16.8-0.2 7.1 0.7 14.3 0.6 21.4-0.1 9.8-0.8 19.6-1.3 29.4-0.3 6.3-0.7 12.5-1.3 18.7-0.6 6.2-1.5 12.4-2.3 18.6-0.8 6.4-2.8 12.6-3.7 19-0.2 1.4-0.1 2.9 0 4.4 0.1 1.5 1 2.3 2.3 2.9q4.1 1.9 8.4 3.4z"/>
				<g id="&lt;Group&gt;">
					<path id="&lt;Path&gt;" class="s16" d="m255.2 314.6c-34.2-1.4-59-20.1-59-20.1 0 0-0.8-7.6 0.3-10.8 0 0 21.6 20.5 59.2 22.6 5.7 0.3 22.5 1.7 26.9-3.4 1.3-1.5 2.2-5.1 2.2-5.3 0 0.1 0.3-1.1 0.3-1.1 0.1 0.5-1.6 9.7-5.4 14.5-4.3 5.2-16.7 3.9-24.5 3.6z"/>
				</g>
				<path id="&lt;Path&gt;" class="s1" d="m347.1 206.3c-1.1 2.1-1.8 4.3-2.2 7 1.1-2.6 1.8-4.8 3.1-6.9 0.4-0.7 0.8-1.6 1.7-1.3 0.8 0.2 0.7 1.2 0.7 1.9 0 1.5 0 1.5 0.9 2.6 0.5-2.7 1-5.4 1.3-8 2-2.3 4.6-3.6 7.2-4.8-0.8 1.1-1.6 3.2-1.5 7.2 0.1 4.4 1.8 16.1 8 25.8-3.4 1.5-12.7 5.6-16.1 7-4.2 1.9-8.6 3.3-13.3 1.7-2.3-0.8-4-2.3-5.7-3.8 3.6-14.8 9.2-32.7 13.5-37.8 1.6 1.2 3.2 2.4 4.6 3.8 0.1 2.2-1.2 3.9-2.2 5.6z"/>
				<path id="&lt;Path&gt;" class="s20" d="m344.3 196.7c4.7-2.7 15.8 0 15.8 0 0 0-4-1-3.9 8 0.2 8.2 3.7 45.4 3.7 50.9 0 0.8-5.6 3.7-9.3 2.9-5-1-7.2 2.2-13.8-0.5-3.2-1.4-7.9-1.7-9.7-2.9-2.7-2 9.9-54.4 17.2-58.4z"/>
				<path id="&lt;Path&gt;" class="s21" d="m418.5 190.8q0.1 0.9 0.2 1.7c0.1 4.9-0.1 9.8-1.3 14.7-0.5 1.8-1.4 3.1-2.8 4-0.8-1.2-1.6-2.9-2.3-5.3-2.4-8.3-2.5-24.7-1.1-29.5q0.5-0.2 1.1-0.3c-1.2 4.5-0.1 9.1-0.8 13.7-0.1 1 0.1 2 0.3 3q0 0.1 0 0.2c2-0.2 3.9-0.9 5.6-2 0.4-0.2 0.8-0.3 1.1-0.2z"/>
				<path id="&lt;Path&gt;" class="s22" d="m459.2 64.3c0 0.9-0.7 1.5-1.5 1.5-0.8 0-1.5-0.6-1.5-1.5 0-0.8 0.7-1.4 1.5-1.4 0.8 0 1.5 0.6 1.5 1.4z"/>
				<g id="&lt;Group&gt;">
					<path id="&lt;Path&gt;" class="s3" d="m486.7 146.5c-0.5 1.2-1.6 1.7-2.8 1.9q-0.7 0.1-1.3 0.4-4 0-7.7 0.1 1.1-0.9 2.1-1.7c3-2.5 6.2-1.7 9.4-1.8 0.9 0 0.5 0.7 0.3 1.1z"/>
					<path id="&lt;Path&gt;" class="s3" d="m445.2 152.1q2.6-3 5.4-5.8c0.7-0.7 5.1-1.4 6-0.9 1 0.6 0.1 1.2-0.1 1.6q-1.1 1.8-2.2 3.5c-3.4 0.5-6.4 1-9.1 1.6z"/>
					<path id="&lt;Path&gt;" class="s3" d="m463 147.5c2.8-2.4 6-2.3 9.6-2q-1.3 1.9-2.8 3.6-5.3 0.2-9.7 0.7 1.5-1.1 2.9-2.3z"/>
				</g>
				<g id="&lt;Group&gt;">
					<path id="&lt;Path&gt;" class="s23" d="m385.6 139.6c0-38.4 31.1-69.6 69.6-69.6 38.4 0 69.6 31.2 69.6 69.6z"/>
					<path id="&lt;Path&gt;" class="s24" d="m539.9 139.6l-37 6.7h-95.4l-37.1-6.7z"/>
				</g>
				<path id="&lt;Path&gt;" class="s22" d="m489.5 123.7c-1.6-16.7-5.8-30.4-12.4-40.5 9.6 8.5 18.8 22.5 22.4 40.5z"/>
				<path id="&lt;Path&gt;" class="s25" d="m203.7 145.8c7.9-5.2 16.5-8.4 25.7-10.2 2.9-1 4.7-1.4 9.3 0.3 0.7 0.3-1.2 1.4-0.5 1.9 1 0.8 2.3 1.9 2.3 2 0 0.2-2.2 1-2.2 1 0 0-21.8-2.6-36.5 6.6 0.5-0.5 1.2-1.1 1.9-1.6z"/>
				<path id="&lt;Path&gt;" class="s26" d="m400.8 139.6h-15.2c0-38.4 31.1-69.6 69.6-69.6q2 0 4 0.1c-32.6 2.1-58.4 32.4-58.4 69.5z"/>
				<path id="&lt;Path&gt;" class="s27" d="m370.4 139.6v-3.4h169.5v3.4z"/>
				<path id="&lt;Path&gt;" class="s28" d="m280.8 150.6c0 0.5 0 0.9 0 1.4-0.1 1.8-0.6 2.9-2.9 2.2-2.2-0.7-11-3.1-12.1-3.4-1.1-0.2-6.9 0.6-7.9 1.2-1.6 0.9-10.1 5.5-13.7 6.7-1.2 0.4-1.8 0.2-1.8-1.3 0.1-5.1-0.6-10.1-1.8-15-0.3-1.4 0.1-1.8 1.5-1.7 4.4 0.6 13.8 4.8 15.9 5.4 0.7 0.1 5.3 0.4 6.2 0.1 1.5-0.5 9.8-5.2 12.8-6.4 1.5-0.5 2.1 0 2.6 1.3 1 3.1 0.7 6.4 1.2 9.5z"/>
				<path id="&lt;Path&gt;" class="s1" d="m196.5 283.7c0 0 6.4 6.1 18.3 11.9 0.2 5 1.2 9.3 2.5 10.4-13.1-5.4-21.1-11.5-21.1-11.5 0 0-0.8-7.6 0.3-10.8z"/>
				<g id="&lt;Group&gt;">
					<g id="&lt;Group&gt;">
						<path id="&lt;Path&gt;" class="s15" d="m294.1 90.9c0.4 1.3 0.3 3.9 0 4.9-0.5 2.1-0.5 4.2 0.5 6.2 1.4 3 0.5 5.7-0.9 8.4-1.3 2-3 1.4-4.5 2.2-5.2 2.6-10.7 2.4-16.3 1.6-4.2-0.6-8.2-1.7-12.1-3.1-1-0.4-1.9-0.9-2.8-1.6-4.5-3.3-7.7-7.6-9.3-13-0.8-3-1.8-5.8-2.7-8.7-0.9-3.1-1-6.3-1.1-9.4-0.1-2.9-0.3-5.7-1-8.4q-2.2-10.2-1.7-20.6c0.1-1.7-0.3-3-1.5-4.2-2.9-3.1-2.3-6.7 1.3-8.7 4.7-2.5 9.8-3.5 15-3.7 5.2-0.3 10.4 0.1 15.5 0.5 1.5 0.2 2.3-0.9 3.6-1.1 1.3 1.8 3 3.1 4.3 4.9 2.6 3.5 4.4 7.4 5.8 11.4 0.3 0.9 0.4 2.2 1.4 2.4 0 0.2 0.2-0.4 0-0.3-2 1-2 1-1.3 3.1 0.1 1.5-0.3 3.3 2.1 3.4 0.2 1.6 1.1 2.5 2.2 3.5 2 1.7 3.8 3.5 5.4 5.5 1.9 2.4 2.6 5 1.5 7.9-2 0.2-3.9 1.1-5.9 1.3-2.7 0.4-5.3 0.4-7.8-0.6-1.5-0.5-2.8-1.4-3.1-2.7-0.2 2.3 0.9 4.5 2.5 6.6-1.1 2.4-1.9 4.9-2.6 7.4-0.4 1.4-1.5 2.2-2.9 2.8 0.6 1.7 2.6 1.7 3.5 2.9 1 2 8 2.5 9.7 2.6 1.3 0.1 2.5-2.3 3.2-3.4z"/>
						<path id="&lt;Path&gt;" class="s29" d="m276.1 32.2c-1 1.4-2.1 1.8-3.9 1.7-8.6-0.7-17.2-1.5-25.7 1.3-1.4 0.4-2.7 0.9-4 1.6-3.8 2.1-4.3 5.6-1.1 8.4 1 0.9 1.5 1.8 1.4 3.1-0.1 0.8 0 1.6 0 2.5-0.4 5.7 0.1 11.3 1.2 16.9 0.2 0.8 0.2 1.6 0.3 2.4 1 5 1 10 1.2 15 0 0.4 0 0.8 0 1.1-0.3 0.9-0.9 1.4-1.8 1.5-1 0.2-1.3-0.5-1.6-1.3-0.4-1.3-1-2.7-1.5-4-1.9-4.5-3.9-9-7.7-12.2-2-1.6-4.1-3.2-7-2.3-1.7 0.7-2.5 2.1-3.2 3.7-0.5 1-1.1 3.1-1.1 4.8-3.3-6.4-7.3-14.5-8.6-21.7-1.5-8.1 0.7-14.9 5.9-21.1 7.6-8.9 17.3-13.4 28.8-15.2 7.2-1.1 14.4-1.6 21.7-0.5 2.5 0.4 4.8-0.1 6.5-2.1 0.8-0.8 1.2-0.2 1.5 0.3 1 1.4 0.9 3 0.4 4.5-0.3 0.7-0.7 1.2-1.1 2 1.2 0.2 2.2-0.2 3.1-0.5 1.5-0.5 1.6 0.2 1.3 1.3-0.8 2.7-2.5 4.9-3.9 7.3-0.4 0.5-0.8 1-1.1 1.5z"/>
						<path id="&lt;Path&gt;" class="s29" d="m280.7 91.7c-1.4-0.8-3.3-1.3-3.9-3.3 2.7-0.2 3.5-2.1 3.9-4.3 0.3-2 1-3.8 2.3-5.3 0.8-1.4 2.4-1.3 3.7-1.5 2.2-0.3 4.4 0.1 6.6-0.5 0.9-0.2 1.2 0.5 1.4 1.2 1 1.7 1.9 3.4 2.2 5.4 0.5 3.7 1.1 4.2 4.6 4.4-1.6 3.1-4.4 3.3-7.4 2.9-2.1 0.5-4.3 0.2-6.4 0.9-1.6 0.5-3.2 0.8-4.8 0.7-0.8 0-1.5-0.1-2.2-0.6z"/>
						<path id="&lt;Path&gt;" class="s3" d="m293.7 110.4c-1 2.5-3.1 3.6-5.5 4.2-4.1 1-8.1 2.3-11.5 5-4.5 2.8-6.7 7.6-9.5 11.8-2 3.1-3.8 6.3-6.1 9.3-1.1 1.5-2.2 2.2-4.1 2-1.9-0.2-4 0.5-5.9-0.4-3.1-1.7-5.7-4.2-8.6-6.3-0.9-0.6-1.9-1.2-3.1-0.9-1.5 0.4-1.6-0.4-1.7-1.7-0.3-7.5 0.7-15 0.6-22.5-0.1-3.6-0.7-7-1.9-10.3-0.2-0.7-0.5-1.3-0.7-2-0.8-2.8-1.9-4.9-4.8-6.5-4.6-2.5-6.6-7.5-8.6-12.1-0.8-1.7-1.8-4.7 0.3-9.4 0.6-1.4 1.5-2.6 3.1-3.1 0.9 1.4 2 2.5 3.2 3.6 3.6 3.1 6.5 6.9 8.6 11.1 0.3 0.5 0.6 0.9 0.8 1.3 0.4 0.8 0.9 0.9 1.4 0.1 0.4-0.6 0.6-1.3 1.2-1.7 0.8 1.3 1.2 2.8 1.7 4.3 0.2 0.4-0.1 1.3 0.9 1.1 0.8-0.2 1.6-0.2 1.6-1.3 0-0.9 0.2-1.8 0.1-2.8 0-4.4-0.6-8.7-0.9-13.1 1 2.1 1.1 4.4 1 6.6-0.1 9.2 2.6 17.8 6.8 25.8 1.9 3.8 5.3 6.7 9.6 8.3 5.1 1.9 10.4 2.9 15.8 3.4 5.1 0.5 14.1-1.9 16.2-3.8z"/>
						<path id="&lt;Path&gt;" class="s3" d="m293.6 77.2c-2.8 1.1-5.7 0.1-8.5 0.9-0.7 0.2-1.4 0.4-2.1 0.7-2.4-2.1-3.1-4.8-2.5-8.1 0.8 2.2 2.4 3.4 4.5 3.9q3.1 0.8 6.2 0.3c1.8-0.3 3.6-0.6 5.3-1.4 0.6-0.4 0.9-0.1 1 0.5-0.2 1.1-0.9 1.7-1.7 2.3-0.6 0.4-1.6 0.6-2.2 0.9z"/>
						<path id="&lt;Path&gt;" class="s3" d="m280.7 91.7c3.5 0.7 6.6-0.8 9.9-1.2 1.2-0.2 2.3 0 3.5 0.2 0.2 0.7 0.2 1.4 0.2 2.1 0 1-2.1 1.3-3.4 1.5-3.4 0.4-8.6-1.1-10.2-2.6z"/>
						<path id="&lt;Path&gt;" class="s30" d="m286 53.9q1.2 0.5 2.3 1 0 1.1 0.1 2.2c-0.1 0.9 0 0.9-1 0.3-0.8-0.3-1.9-0.7-1.7-1.9 0.1-0.6 0.2-1.1 0.3-1.6z"/>
						<path id="&lt;Path&gt;" class="s3" d="m262.1 56c2.9 1.1 5.6-0.3 8.4-0.5q0.6-0.1 1.1-0.2c-0.2 1.7 0.9 3.1 1.1 4.7 0.2 0.9 0.2 1.5-1.1 1.4-2.2-0.2-4.3 0.4-6.4 0.9-0.8 0.2-1.6 0.7-2.2-0.3 2.4-1.3 5-1.6 7.8-1.6-1.9-0.6-3.7-0.6-5.5 0-0.6 0.2-1.2 0.7-2 0.3q-0.6-2.3-1.2-4.7z"/>
						<path id="&lt;Path&gt;" class="s31" d="m263.3 60.7c2-1 4-1.5 6.2-1.3 1.1 0.1 2.1 0.4 3 1.5-2.3 0.3-4.3 0-6.3 0.4-1.1 0.2-2 1.2-3.2 0.7q0.1-0.6 0.3-1.3z"/>
						<path id="&lt;Path&gt;" class="s32" d="m240.9 81.9c-0.1 0.1 0 0.2-0.1 0.4-0.2 1.1-0.9 2.4-1.7 2.7-0.9 0.2-1.3-1.4-1.7-2.2-2.5-4.9-5.8-9.2-10.2-12.6-1.9-1.5-3.1-0.8-3-2 2.8-1.9 5.2-0.9 6.8 0.1 2.4 1.4 4.4 3.3 5.9 5.7 1.6 2.5 2.8 5.2 4 7.9z"/>
						<path id="&lt;Path&gt;" class="s33" d="m285.2 53.7c-1.1-1.9-1-2.9 0.5-3.4 0.4-0.1 3.7 0.5 4.6 1.2 0.9 0.7 1.7 1.4 1.2 2.7-0.6 1.3-1.8 1.3-2.9 0.9-0.4-0.1-2.5-0.2-3.4-1.4z"/>
						<path id="&lt;Path&gt;" class="s29" d="m262.1 56c-0.9-1.9-0.5-3 1.4-3.7 2.9-1.1 5.9-1.5 8.9-1.9 1.1-0.1 2.2 0.3 2.5 1.5 0.4 1.1-0.3 2-1.2 2.5-0.7 0.4-7.1 2.3-9.7 2.5-0.8 0.1-1.3-0.4-1.9-0.9z"/>
					</g>
					<path id="&lt;Path&gt;" class="s3" d="m222.6 70.6c0.6-1.4 1.5-2.6 3.1-3.1 0.9 1.4 2 2.5 3.2 3.6 3.6 3.1 6.5 6.9 8.6 11.1 0.3 0.5 0.6 0.9 0.8 1.3 0.4 0.8 0.9 0.9 1.4 0.1 0.4-0.6 0.6-1.3 1.2-1.7 0.8 1.3 1.2 2.8 1.7 4.3 0.2 0.4-0.1 1.3 0.9 1.1 0.8-0.2 1.6-0.2 1.6-1.3 0-0.9 0.2-1.8 0.1-2.8 0-4.4-0.6-8.7-0.9-13.1 1 2.1 1.1 4.4 1 6.6-0.1 9.2 2.6 17.8 6.8 25.8 1.9 3.8 5.3 6.7 9.6 8.3 5.1 1.9 10.4 2.9 15.8 3.4 5.1 0.5 14.1-1.9 16.2-3.8-1 2.5-3.1 3.6-5.5 4.2-4.1 1-8.1 2.3-11.5 5-2.4 1-5 1.3-7.5 1.8-4 0.8-7 2.7-8.5 6.8-1.4 3.9-3.3 7.5-4.8 11.4-1.2 3.2-1.2 3.2-4.8 2.7-3.1-1.7-5.7-4.2-8.6-6.3-0.9-0.6-1.9-1.2-3.1-0.9-1.5 0.4-1.6-0.4-1.7-1.7-0.3-7.5 0.7-15 0.6-22.5-0.1-3.6-0.7-7-1.9-10.3-0.2-0.7-0.5-1.3-0.7-2-0.8-2.8-1.9-4.9-4.8-6.5-4.6-2.5-6.6-7.5-8.6-12.1-0.8-1.7-1.8-4.7 0.3-9.4z"/>
					<path id="&lt;Path&gt;" class="s15" d="m284.5 115.6c-2.8 0.9-5.4 2.1-7.8 4-4.5 2.8-6.7 7.6-9.5 11.8-2 3.1-3.8 6.3-6.1 9.3-1.1 1.5-2.2 2.2-4.1 2-1.9-0.2-4 0.5-5.9-0.4-2.2-1.2-4.1-2.8-6.1-4.3 0.6-6.2 1.3-14.6 10.4-18.4 6-2.6 14.5-2.7 29.1-4q0 0 0 0z"/>
				</g>
				<path id="&lt;Path&gt;" class="s16" d="m235.4 139.2c-2.9-1.8-3.5-3.7-1.9-6.3 0.9-1.4 2.1-1.5 3.5-0.6 4.9 3.3 10.2 5.5 16.1 6.4 2.7 0.4 5.3 0.1 7.9-0.6 1.2-0.3 2.4-0.8 3.2-1.9 0.8-1.1 1.6-0.8 2.2 0.3 0.5 1.2 1 2.4 1.4 3.7 0.7 2.2 0.2 2.4-1.9 3.3-9.4 4.5-23.5 0.2-30.5-4.3z"/>
				<path id="&lt;Path&gt;" class="s34" d="m282.3 147c0 0.4 0 0.9 0 1.4-0.1 1.8-0.6 2.9-2.9 2.2-2.2-0.7-11-3.1-12.2-3.4-1-0.2-6.8 0.6-7.8 1.2-1.6 0.9-10.1 5.5-13.7 6.7-1.3 0.4-1.8 0.2-1.8-1.3 0.1-5.1-0.6-10.1-1.8-15-0.4-1.4 0.1-1.9 1.4-1.7 4.4 0.5 13.9 4.8 16 5.3 0.7 0.2 5.3 0.5 6.2 0.2 1.5-0.6 9.8-5.3 12.8-6.4 1.4-0.5 2.1-0.1 2.6 1.3 1 3.1 0.7 6.3 1.2 9.5z"/>
				<path id="&lt;Path&gt;" class="s35" d="m234.5 43.8c0.2 1-5.8 5.8-5.5 6.8 0 0 6.4-3.8 6.7-2.9 2.7 10.4 5.1 23.2 9.7 34.2q0 1.6 0.1 3.2c0 0.4 0 0.8 0 1.1-0.3 0.9-0.9 1.4-1.8 1.5-1 0.2-1.3-0.5-1.6-1.3-0.4-1.3-1-2.7-1.5-4-1.9-4.5-3.9-9-7.7-12.2-2-1.6-4.1-3.2-7-2.3-1.7 0.7-2.5 2.1-3.2 3.7-0.5 1-1.1 3.1-1.1 4.8-3.3-6.4-7.3-14.5-8.6-21.7-1.5-8.1 0.7-14.9 5.9-21.1 5.8-6.9 13-11.2 21.2-13.5-0.3 0.1-0.8 0.3-1.2 0.5-9.5 5.2-7.3 13.2-4.4 23.2z"/>
				<path id="&lt;Path&gt;" class="s1" d="m238.3 140.8q-1.6-0.8-2.9-1.6c-2.9-1.8-3.5-3.7-1.9-6.3 0.9-1.4 2.1-1.5 3.5-0.6q3.4 2.3 7.2 3.9c-3.4 0.9-5 2.9-5.9 4.6z"/>
				<g id="&lt;Group&gt;">
					<path id="&lt;Path&gt;" class="s17" d="m219.5 160.4c0 0-1.7-6.4-6.2-12-1.8-2.1-4.6-3.3-7.5-2.7-2.3 0.6-4 1.8-4 1.8 0.1 0 1.5-2.1 4.1-2.7 3.4-0.8 6.4 0.1 8.5 2.7 4.8 5.9 6.4 12.3 6.5 12.6z"/>
				</g>
				<path id="&lt;Path&gt;" class="s36" d="m469.9 564.2c0.4 3.1-0.1 8.2-3.6 8-2-0.1-3.8 2.9-5.8 3.6-8 3-16.8-3-24.8-6-2.1-0.8-3.5-1.2-5.7-1.8 0.1-2.2-2.6-19.5 6.4-15.6 1.1-0.1 2.2 0.3 3.3 0.5q0.4-0.4 0.7 0.1c2.3 0.3 4.6 0.9 7 0.7 5.3 0.7 10.5 1.4 15.8 2.1 2.9 0.4 5.9 0.3 8.8 1.4-4.8 1.1-2.1 4.5-2.1 7z"/>
				<path id="&lt;Path&gt;" class="s37" d="m709.2 589.5c126.1-1.1 102.4 21.2 1.6 24.7-4.2 0.1-211.5 2.8-253 2.8-15.6 0-36.4 0.9-51.1 0.7-7.3-0.1-16.1 8.1-19.7 8.1-7.2 0-9.5 0-16.3 0-2 0 10-8.5 5.8-13.5-0.6 1.9-1.8 3.1-1.8 3.1l-322.5-1 0.9-4.6 42.9 0.1 2.4-15.3-19-0.9 0.5-3.8c0 0 428.9 1.4 629.3-0.4z"/>
				<path id="&lt;Path&gt;" class="s38" d="m475.4 597c-1.1 1.1-2.5 1-3.9 0.9-14.6-0.9-61.4 5.4-73 5.1-7.9-0.2-29.5-1.6-29.5-2.4-3.8-12.2 6.7-15.7 19.6-16.7 9.5-0.7 17.9-7.4 26.5-10.5 5.2-1.9 10.8-7.7 13.5-8.5 3.1-0.3 12 10.6 14.3 11.9 15.6 8.1 26.7-2.6 27.8-5.1 3.3 5.6 4.2 11.9 5.3 18.1 0.5 2.4 0.2 4.8-0.6 7.2z"/>
				<path id="&lt;Path&gt;" class="s39" d="m475.4 590.4c-1.1 1.1-2.5 1-3.9 0.9-14.6-0.9-61.4 5.5-73 5.1-7.9-0.2-29.5-1.6-29.5-2.3-3.8-12.2 6.7-15.8 19.6-16.7 9.5-0.7 17.9-7.5 26.5-10.6 5.2-1.8 10.8-7.7 13.5-8.5 3.1-0.3 12 10.7 14.3 11.9 15.6 8.1 26.7-2.5 27.8-5 3.3 5.5 4.2 11.9 5.3 18 0.5 2.4 0.2 4.9-0.6 7.2z"/>
				<path id="&lt;Path&gt;" class="s40" d="m644.7 431.4c-0.6 1-1.4 2.2-2.6 4.3-4.9 8-14.3 11.6-23.3 12.2-19.2 1.4-38.2-0.1-57-4.4-18.6-4.3-39.2-8.2-57.6-13-5.6-1.4-3.2-1.1-5.9 4.1-2.2 4.2-13.8 80.4-16.4 104-0.7 7.1-2.4 13.8-4.1 20.7-0.5 2-1.2 3.9-3.3 4.9-7.4-0.3-14.3-2.7-21.5-4-1.1-0.2-11.9-3.2-13-3.5-2.3-0.6-8.8-3-9.9-3.5-5.2-2.3-5.4-2.7-4-8.1 1.2-5 1.8-10.2 3.2-15 5.1-16.9 7.3-34.3 11.5-51.3 2.6-10.4 4.8-20.9 7.1-31.4 1.8-8.2 5.5-15.9 7.2-24.1 2-9.7 3.7-19.5 7.1-28.8q0-0.2 0.1-0.4c4.4-12.1 7.4-13.7 20.2-13.5 24.7 0.3 49.3 2.8 73.9 5.6 3.6 0.4 7.1 1.1 10.7 1.6q0 0.3-0.1 0.6-0.4 0.2-0.7 0.3 0.3 0 0.7 0.1c2.7 6.6 6.4 12.4 12.6 16.4 11.2 7.2 24.2 9.7 36.4 14.3 3.3 1.2 6.3 3 9.3 4.7 6.3 3.5 12.2 6.1 19.4 7.2z"/>
				<g id="&lt;Group&gt;">
					<g id="&lt;Group&gt;">
						<g id="&lt;Group&gt;">
							<path id="&lt;Path&gt;" class="s41" d="m412.3 338.8c0 1.4-34.3 16.2-34.3 16.2l-115.7-4.5-70-9.4-4.8-8.2c0 0 2.6-0.4 6.6-0.6 23.6-1.2 105.7-4.9 120.1-5.7 16.8-0.9 64.9-3 64.9-3z"/>
							<path id="&lt;Path&gt;" class="s42" d="m392.2 567.7h-28.5v-213.3h28.5z"/>
							<path id="&lt;Path&gt;" class="s43" d="m380.8 559.3l-17.1 8.4v-139.8c0 0 1 2.7 4.9 4 3.9 1.3 6.9 0.6 6.9 0.6z"/>
							<path id="&lt;Path&gt;" class="s42" d="m364 568.4l28.4-8.3 84.6 34.1-7 17.5z"/>
							<path id="&lt;Path&gt;" class="s42" d="m363.8 559.3h27.8l-4.6 66.5h-16.3l-5.4-47.2z"/>
							<path id="&lt;Path&gt;" class="s44" d="m281.2 598.3l-2-4.9 85.7-35 0.7 3.7z"/>
							<path id="&lt;Path&gt;" class="s42" d="m287 611.7l-7-17.5 84.5-34.1 28.5 8.3z"/>
							<path id="&lt;Path&gt;" class="s44" d="m371.1 609.6l-0.4 16.2-5.4-47.2 0.3-16.5z"/>
							<path id="&lt;Path&gt;" class="s43" d="m364.6 559.3h27.9l-4.5 50.3h-16.9l-5.8-47.4z"/>
							<path id="&lt;Path&gt;" class="s42" d="m391.6 559.3l0.7 19.3-5.4 47.2-0.4-16.2z"/>
							<path id="&lt;Path&gt;" class="s44" d="m373.2 559.3h-9.5v-131.4l2.6 7.3z"/>
							<path id="&lt;Path&gt;" class="s42" d="m388.5 555.5l3.1 3.8 6.9 5.9-2.1 6.5-4.7 2.9-10.9-15.3z"/>
							<path id="&lt;Path&gt;" class="s45" d="m442.4 413.3c0 6.5-28.8 11.9-64.4 11.9-35.6 0-64.5-5.4-64.5-11.9 0-1.4 0-19 0-19 0 0 36.4 7.1 64.5 7.1 31.8 0 35.7-13.7 64.4-7.1 0 0 0 17.4 0 19z"/>
							<path id="&lt;Path&gt;" class="s46" d="m586.8 387.5c0 8.7-93.5 19.9-208.8 19.9-115.4 0-208.9-11.2-208.9-19.9 0-1.8 0-20.9 0-20.9 0 0 117.7 9.4 208.9 9.4 103.2 0 115.7-18 208.8-9.4 0 0 0 18.9 0 20.9z"/>
							<path id="&lt;Path&gt;" class="s41" d="m586.8 366.6c0 8.7-93.5 15.7-208.8 15.7-115.4 0-208.9-7-208.9-15.7 0-8.6 93.5-15.7 208.9-15.7 115.3 0 208.8 7.1 208.8 15.7z"/>
							<path id="&lt;Path&gt;" class="s41" d="m379.1 323.6c114.8 0.1 205.9 7.3 207.7 15.7 2.9 13.3-93.5 15.7-208.8 15.7z"/>
							<path id="&lt;Path&gt;" class="s42" d="m689.2 593.6c-0.7-3.7-18.5-89.2-18.5-150.8 0-83.7 20.2-150.9 26.8-173 1-3.3 2-6.7 2.1-7.5q0 0.4 0 0.6h12.6c0 1.7-0.5 3.4-2.6 10.5-6.5 21.7-26.3 87.6-26.3 169.4 0 60.3 18.1 147.3 18.3 148.2z"/>
							<path id="&lt;Path&gt;" class="s47" d="m521.9 427.8h149.7l3.1 27.6h-152.8z"/>
							<path id="&lt;Path&gt;" class="s42" d="m520.3 485.9h159.2v13.1h-159.2z"/>
							<path id="&lt;Path&gt;" class="s42" d="m516.5 593.2l-14.8-1.8 19.6-160.6 14.8 1.8z"/>
							<path id="&lt;Path&gt;" class="s43" d="m698 463.6c0-83.6 21.6-158.2 28.7-182.7 1.2-3.9 2.8-14.8 3-15.7-0.1 0.3 4.7-4.7 4.1 0.3l8 7.6c0 1.7-0.5 3.4-2.8 11.3-7 24.1-28.2 97.4-28.2 179.2 0 60.2 18 147.3 18.2 148.2l-12.5 2.6c-0.7-3.6-18.5-89.2-18.5-150.8z"/>
							<path id="&lt;Path&gt;" class="s43" d="m552.6 447.8h149.5v28.4h-149.5z"/>
							<path id="&lt;Path&gt;" class="s43" d="m547.7 506.7h159.2v13.1h-159.2z"/>
							<path id="&lt;Path&gt;" class="s43" d="m543.9 614l-14.8-1.8 19.5-163.1 14.8 1.7z"/>
							<path id="&lt;Path&gt;" class="s42" d="m549.1 473.5l-29.9-19.4 2.7-26.3 30.3 20.7z"/>
							<path id="&lt;Path&gt;" class="s42" d="m550.1 460.4c-5.6-2-28.5-16.6-29.7-18.9-1.2-2.3-0.4-7.1 1.5-9.8 1.8-2.6 40.1-7.7 78-7.1 38 0.5 64.3 5 69.8 6.1 5.6 1 29.2 13.8 30.1 19.3 0.9 5.6 1.3 8.8-0.6 9.9-1.8 1.1-143.5 2.4-149.1 0.5z"/>
							<path id="&lt;Path&gt;" class="s48" d="m550.1 456.5c-5.6-2-28.5-16.6-29.7-18.9-1.2-2.3-0.4-7.1 1.5-9.8 1.8-2.6 40.1-7.7 78-7.1 38 0.5 64.3 5 69.8 6.1 5.6 1 30.3 13.5 31.2 19 0.9 5.6 0.2 9.1-1.7 10.2-1.8 1.1-143.5 2.4-149.1 0.5z"/>
							<path id="&lt;Path&gt;" class="s49" d="m700.3 439.8c1.6 2.6 2.2 5.5 1.3 5.3-17.7-2.7-53.1-7.7-139 0.2-5.2 0.5-10.6-6.3-20.1-11.9-6.1-3.6-12.5-5.6-12.1-6.1 1.8-2.7 39.9-7.4 77.8-6.8 38 0.5 64.2 5.4 70.3 6.5 5 0.9 12.1 4.9 17.9 9 0.5 0.3 2.7 2 3.9 3.8z"/>
							<path id="&lt;Path&gt;" class="s50" d="m731.2 321.3c-1.4 5.1-6.5 7.2-11.6 5.5l-29.4-10.1c-5.1-1.8-8.3-6.7-6.9-11.9l11.5-42.6c1.4-5.2 6.8-8.3 12-7l30 7.7c5.2 1.3 8.3 6.6 6.9 11.8z"/>
							<path id="&lt;Path&gt;" class="s43" d="m734.8 321.8c-1.4 5.3-6.7 7.7-11.9 5.9l-30.4-9.9c-5.2-1.8-8.2-7.6-6.8-12.9l11.8-43.7c1.4-5.3 7-8.5 12.3-7.2l30.8 7.9c5.3 1.4 8.5 6.8 7.1 12.1z"/>
							<path id="&lt;Path&gt;" class="s48" d="m732.4 320.8c-1.4 5.2-6.7 8-11.8 6.2l-29.4-10.1c-5.1-1.7-8.1-7.4-6.7-12.5l11.5-42.7c1.4-5.2 6.8-8.3 12-7l30 7.7c5.2 1.3 8.3 6.7 6.9 11.8z"/>
							<path id="&lt;Path&gt;" class="s51" d="m699.9 261.3c-1.3-0.2-8-5.2-9-5.3 6.5-10.7 48.1 5.2 48.1 5.2 5.6 2 6.6 6.7 6.2 11.3-2.9-1.5-9.1-3.7-11.4 0.3-2.5 4.1-12.2-7.6-14.9-7.8-2.7-0.3-8-1.7-19-3.7z"/>
							<path id="&lt;Path&gt;" class="s48" d="m685.9 312.7q-0.8-1.3-1.2-2.7l1.7 0.3 4.8 2.8 8.6 4.2c0 0 3.6 0 4.8-0.2 1.1-0.1 16.8-2.9 17 3 0.1 5.1 7 3.8 10.3 1.8-1.8 4.4-6.6 6.7-11.3 5.1l-20.1-6.9z"/>
							<path id="&lt;Path&gt;" class="s49" d="m722.7 317.7c-1.3 5.1-6.5 8-11.5 6.4l-27.3-9.4c-5-1.7-8.1-7.2-6.8-12.3l10.5-42.3c1.3-5.1 6.5-8.3 11.6-7.1l27.9 7c5.1 1.3 8.3 6.4 7 11.6z"/>
							<path id="&lt;Path&gt;" class="s52" d="m581.3 336c8.3 1 5.5 3.3 5.3 7.6-0.2 4.3-5.6 15.2-5.6 15.2 0 0-0.6-8.8-28.8-10.8-28.2-2.1-84.6-14.8-83.6-17.8 1.1-3 2.5-4.4 12.3-6.9 0 0 92.1 11.6 100.4 12.7z"/>
							<path id="&lt;Path&gt;" class="s38" d="m508.6 609.1c-1.1 1.1-2.5 1-3.9 0.9-14.6-0.9-61.4 5.4-73 5.1-7.9-0.3-29.5-1.6-29.5-2.4-3.7-12.2 6.7-15.7 19.6-16.7 9.5-0.7 17.9-7.4 26.5-10.5 5.2-1.9 10.8-7.8 13.5-8.6 3.1-0.2 12 10.7 14.4 12 15.5 8.1 26.6-2.6 27.7-5.1 3.4 5.6 4.2 11.9 5.3 18.1 0.5 2.4 0.3 4.8-0.6 7.2z"/>
							<path id="&lt;Path&gt;" class="s53" d="m538.4 600.3q0-4.3 0-8.6c1.1 2.9 0.6 5.7 0 8.6z"/>
							<path id="&lt;Compound Path&gt;" class="s54" d="m588.4 380.1q0.1 0.1 0.3 0.2c1.2 0.8 2 1.6 2.6 2.4-1.4-0.8-2.4-1.6-2.9-2.6zm1 10.7c0.6-1.7 1.3-3.2 2.5-4.5-0.3 1.2-1 2.4-2 3.6-0.2 0.3-0.2 0.7-0.5 0.9z"/>
							<path id="&lt;Path&gt;" class="s55" d="m503.4 577.8c0.4 3.2-0.2 8.3-3.6 8.1-2-0.1-3.9 2.8-5.8 3.6-8 2.9-16.8-3.1-24.8-6.1-2.1-0.8-3.5-1.1-5.7-1.8 0.1-2.2-2.6-19.5 6.4-15.6 1-0.1 2.2 0.4 3.3 0.6q0.3-0.5 0.7 0c2.3 0.4 4.6 1 7 0.7 5.2 0.7 10.5 1.4 15.8 2.1 2.9 0.4 5.9 0.3 8.7 1.4-4.8 1.1-2 4.5-2 7z"/>
							<path id="&lt;Path&gt;" class="s56" d="m508.6 602.5c-1.1 1.1-2.5 1-3.9 0.9-14.6-0.9-61.4 5.4-73 5.1-7.9-0.2-29.5-1.6-29.5-2.4-3.7-12.1 6.7-15.7 19.6-16.6 9.5-0.8 17.9-7.5 26.5-10.6 5.2-1.9 10.8-7.7 13.5-8.5 3.1-0.3 12 10.7 14.4 11.9 15.5 8.1 26.6-2.6 27.7-5 3.4 5.5 4.2 11.8 5.3 18 0.5 2.4 0.3 4.9-0.6 7.2z"/>
							<path id="&lt;Compound Path&gt;" class="s38" d="m474.3 561c-0.2 1.7-0.4 3.3-0.8 5-0.8 1.2-2 0.9-3.1 0.7-2.3-0.4-9.1-2.1-10.2-2.5-5.4-1.8-5.6-2.1-4.8-7.6 0.7-5.1 0.8-10.3 1.8-15.3 3.3-17.3 3.9-34.8 6.4-52.2 1.5-10.6 2.7-21.3 3.9-31.9 1-8.4 4-16.3 4.8-24.7 1.1-9.9 1.8-19.7 4.3-29.4q0-0.1 0.1-0.3c3.2-12.5 6-14.4 18.7-15.5 24.7-2.1 49.4-2 74.1-1.6 3.7 0 7.3 0.3 10.9 0.5q0 0.3-0.1 0.7c-3.4 1.7-3.5 2.1-1.1 5.9 5.3 8.7 12.6 15.5 20.7 21.5 2.3 1.7 4.2 3.7 5.5 6.2 0.8 1.7 3.4 4 1.1 5.3-0.4 0.7-2.5 0.9-2.9 1.6q-0.1 0.3-0.2 0.5c-10.6 0.1-20.9-2.3-31.3-3.6-16.8-2.1-33.5-4.6-50.3-6.4-5-0.5-10-0.9-15-0.5-1.8 1.3-4.4 1.4-5.5 3.8 4.6 5.5 5.5 14.7 2 20.7-2.2 3.8-3.7 7.8-4.4 12.1-3.3 19.9-7.2 39.7-9.7 59.7-0.5 3.6-0.9 7.2-1 10.8 0 4.3-0.2 8.6-2.3 12.5-0.8 1.5-1 3.2-0.6 4.8 1.2 4.6 0.2 9-0.8 13.5-0.6 2.5-0.9 5-1.3 7.6-0.2 1.7-0.6 3.4-2.2 4.5-2.6 0.9-5 0.8-7.2-0.9 0.2-1.9 0.8-8.5 1-10q-0.3 2.2-0.5 4.5z"/>
							<path id="&lt;Path&gt;" class="s57" d="m501.2 416q-0.4 1-0.7 2c-3.4-4.3-4.1-9.6-5.3-14.8 2.4 3.7 5.7 6.7 8.1 10.4 1.6 2.5-2.1 1-2.1 2.4z"/>
							<path id="&lt;Path&gt;" class="s38" d="m661.8 422c-0.5 1.1-1.1 2.4-2.1 4.6-4.1 8.4-13.1 12.9-22 14.4-19 3.3-38.1 3.6-57.2 1.2-18.9-2.5-39.8-4.3-58.6-7.3-5.7-0.9-3.3-0.8-5.5 4.6-1.7 4.4-5.8 81.4-6 105.1-0.1 7.2-1.1 14-2.1 21-0.3 2-0.9 4.1-2.9 5.2-7.3 0.5-14.5-1.3-21.7-1.8-1.2-0.1-2.3-0.4-2.8-1.7 2.2-5.1 1.9-10.9 3.5-16.2 0.8-2.8 0.8-5.7-0.1-8.5-0.6-2.1-0.3-4 0.7-5.7 1.9-3.5 2.1-7.3 2.2-11.1 0.5-10.6 2-21 3.8-31.4 2.3-13 4.5-26 6.7-39 0.6-4 1.2-8.3 3.7-11.5 5.2-6.9 3-13.5 0.4-20.4-0.2-0.6-0.4-1.3-0.6-2 0.2-3.7 3.1-4 5.8-4.5 0.4-0.8 0.6-1.9 1.9-1.4 5.4 2.2 11.1 0.5 16.6 1.6 6.2 1.3 12.6 1.6 19 2.4 8.5 1 16.9 2.2 25.4 3.3 11.1 1.5 34.9 4.3 35.7 2.2q0 0 0-0.1c-0.1-4-2.5-6.9-5.5-9.1-7.8-6-15.4-12.3-20.7-20.8-0.6-1.1-1.4-2.2-2-3.3-2.1-4.2-1.9-4.5 2.9-4.6 3.4 6.3 7.7 11.8 14.2 15.1 11.8 6.1 25.1 7.3 37.7 10.7 3.3 0.9 6.5 2.3 9.6 3.7 6.6 2.9 12.7 4.9 20 5.3z"/>
							<path id="&lt;Path&gt;" class="s41" d="m187.5 332.9c32.8-5.5 105.7-9.3 190.5-9.3q0.6 0 1.1 0z"/>
							<path id="&lt;Path&gt;" class="s58" d="m596.2 400.5c0 28.9-436.4 26.8-436.4 3.2 0-1.8 9.3-64.4 9.3-64.4 0 0 117.7 15.7 208.9 15.7 85.1 0 137.7-12.7 194.8-10.3 12.3 0.6 14.4-3.5 14-5.4 0 0 9.4 59.2 9.4 61.2z"/>
							<path id="&lt;Path&gt;" class="s41" d="m378 355c-115.4 0-208.9-7-208.9-15.7 0-2.3 6.6-4.5 18.4-6.4l34.9 11.9z"/>
							<path id="&lt;Path&gt;" class="s58" d="m214.9 364.9c0.8 0.7 2.9 2.7 2.9 2.7 0.8 2 1.8 3.9 4.1 4.1 2 0.1 3.7 1.1 5.5 1.6 3.3 0.4 6.6 1 9.9 1.3 0.7 0.1 1.5-0.5 2.2-0.8q0 0 0 0c9.6-2.6 22.3 1.4-15.9 1.7h-2.4c-20.3 0.1-37.3-0.3-41.9-1.2q-0.5-0.1-1-0.2-0.7-0.2-1.7-0.4c-4.9-1.4-7.5-2.8-7.5-4.2 0-2.3 6.6-4.5 18.4-6.4q4.1-0.7 8.9-1.3c5.4-0.8 9.5-1.4 12.9-1.6 0 0 4.8 4 5.6 4.7z"/>
							<path id="&lt;Path&gt;" class="s41" d="m538.7 349.3c-38.3 3.5-96.1 5.7-160.7 5.7l0.3-9.9c0 0 92-0.9 148.5-0.5 2.2 0 24.3 3.6 11.9 4.7z"/>
							<path id="&lt;Path&gt;" class="s43" d="m543.9 614l-14.8-1.8 17.1-146.9 14.9 1.7z"/>
							<path id="&lt;Path&gt;" class="s42" d="m533.2 612.7l-4.1-0.5 17.1-146.9 4.5-4.8z"/>
							<path id="&lt;Path&gt;" class="s48" d="m649.5 439c-4.1 0.6-8.1 0.7-12.2 0.7-1.8 0-3.5-0.1-5.2 0.4q-0.6 0.1-1.2 0.1c-4.1-0.2-8.2 0.4-12.2 0.8-3.6 0.3-7.1 0.3-10.7 0.6-2.9 0.1-5.8 0.5-8.8 0.9-2.1 0.3-4.2 0.3-6.3 0.6-3 0.5-6.1 0.6-9.2 0.9-4.5 0.4-9.1 0.7-13.5 1.8-0.7 0.2-1.5 0.2-1.9 0.8 0.1 0.6 0.6 0.4 0.9 0.4 5.9 0 11.7 0.1 17.5-0.1 2.9 0 5.9-0.3 8.8-0.7 1.6-0.3 3.2-0.3 4.9-0.4 3.5-0.3 7-0.7 10.6-1 0.3 0 0.6-0.1 0.9-0.1q5.6-0.4 11.3-0.8 1.8-0.1 3.6-0.3c0.4 0 0.8-0.2 1.2-0.2 7 0.2 13.9-1.2 20.8-0.6 8.3 0.8 16.7 0.4 25 0.5 1.4 0.1 2.7 0.1 4 0.4q0.6 0.2 1.2 0.2c3.8 0 7.5 0.2 11.3 0.6 1.7 0.2 3.4 0.1 5.1 0.5 0.7 0.2 1.5 0.1 2.2 0.1 1.7 0.1 3.4-0.2 3.3-2.6-0.1-2.4-4.8-6.5-5.8-7.4-0.5-0.5 13 7.3 10.2 19.4-2.7 6.9-8.8 4.9-12.4 4.8-18.5-0.2-37 0.9-55.6 0.8-21.2-0.2-42.4-0.1-63.7 0-5.9 0-11.8-0.6-17.7-0.8-3-0.1-5.5-1.9-8.1-3.4q-9.4-5.4-18.4-11.5c-2.4-1.7-4.3-3.7-5.6-6.3-0.2-0.8 0.1-1.5 0.6-2.1 1.6-0.3 3.1-0.1 4.6 0.2 8.6 1.4 17.3 2.5 26 3.5q7.9 0.9 15.8 1.9c1.2 0.2 2.4 0.1 3.7 0 7.2-0.8 14.3-1.7 21.5-2.4 5.7-0.6 11.4-0.7 17.1-0.7q12.1-0.1 24.2 0c3 0 6.1 0 9.2 0.1 1 0 2-0.1 3 0.4z"/>
							<path id="&lt;Path&gt;" class="s51" d="m665.1 439.5c9 1.8 2.9 1.6-5 2.1-17.9 1.1-73.3 2.9-73.3 2.9 17.4-5.4 66.3-5.9 67.7-6.5 0 0 1.6-0.2 10.6 1.5z"/>
							<g id="&lt;Group&gt;">
								<g id="vE9IKK 3 ">
									<g id="&lt;Group&gt;">
										<path id="&lt;Path&gt;" class="s59" d="m480.8 290.5c1-1.1 2.2-1.2 3.5 0.1 2.9 2.9 6 5.4 9.7 7.2 0.7 0.3 1.2 0.8 1.7 1.4 1.5 1.9 3.1 3.7 4.6 5.7 1.1 1.5 1.7 3.2 2.9 4.7 0.7 0.8 1.3 1.7 2.3 2.2q0 0.2 0 0.4c-0.3 0.9-1.1 1.1-1.8 1.3-2.3 0.8-4.1 2.2-5.3 4.3-1.1 2.1-1.6 4.3-1.8 6.6q-0.4 3.5 0.4 7c0.2 0.7 0.3 1.3 0.2 2-0.1 0.6-0.3 0.8-0.9 0.8-5.2 0.1-10.2-0.8-15-2.7-1-0.4-2-0.8-3.2-0.9-2-0.2-3.4-1.6-4.8-3-1.5-1.5-2.8-3.3-4-5.1-0.9-1.4-0.9-2.9-0.3-4.3 0.3-0.7 0.2-1-0.3-1.4-1.7-1.3-2.1-3.2-2.1-5.1 0-0.9 0.6-1.5 1-2.2 0.3-0.6 0.4-1.1-0.1-1.6-0.3-0.4-0.5-0.8-0.8-1.3-1.3-2.3-0.6-4.5 0.4-6.6 0.2-0.5 0.7-0.6 1.1-0.8 2.8-1.2 5.8-2.1 8.8-2.7 0.4-0.1 0.8-0.2 1.1 0 0.4 0.3 0.5 0.7 0.6 1.1 0.2 0.8 0.4 1.7 0.5 2.5 0.2 1 0.6 1.5 1.6 1.7 1.2 0.3 2.4 0.6 3.6 1 0.9 0.2 1.8 0.5 2.8 0.9-0.9-1.9-2.8-2.7-4.1-4.1-0.8-1-1.6-2.1-2.2-3.4-0.7-1.5-1.1-3.1-0.6-4.8 0.1-0.4 0.1-0.7 0.5-0.9z"/>
										<path id="&lt;Path&gt;" class="s60" d="m463.8 254.9c1-0.3 1.2-0.2 1.3 0.8q0.5 5.4 1.2 10.9c0 0.3 0 0.9 0.5 0.9 0.7-0.1 0.5-0.7 0.4-1.1q-0.5-5.5-1-10.9c-0.1-0.5-0.2-1.1 0.5-1.2 0.8-0.1 0.8 0.5 0.8 1q0.7 5.5 1.4 11 0 0.1 0 0.2c0.1 0.2 0 0.7 0.5 0.6 0.5 0 0.4-0.5 0.3-0.8q-0.3-3.3-0.6-6.5c-0.2-1.6-0.4-3.1-0.6-4.6 0-0.4-0.1-0.7 0.2-1 0.4-0.4 1-0.1 1 0.6 0.4 3.8 1.1 7.5 1.8 11.3 0 0.3-0.1 0.8 0.4 0.7 0.5-0.1 0.2-0.6 0.2-0.9-0.5-3.6-1-7.2-1.5-10.8 0-0.4-0.2-1.1 0.3-1.1 0.8-0.2 0.8 0.4 0.9 0.9 0.9 4.5 1.4 9.2 2.2 13.8 0.2 1.3 1.5 4.8 2.1 6 1.9 3.8 1.8 5.7 2.8 9.7 0.5 2.1 1.2 4.1 1.9 6.1-1.2 3.1 0.1 5.7 1.8 8.1 0.3 0.3 0.7 0.6 0.7 1 0.8 1 1.1 2.1 1.1 3.4q-2.2-0.6-4.3-1.1c-0.6-0.2-0.8-0.4-0.9-1-0.3-1.4-0.7-2.8-1.1-4.2-0.4-2.8-1.3-5.5-1.9-8.2-0.5-2.5-1.1-5.1-1.6-7.6-0.5-2.7-1.9-4.8-4.4-6-4.1-1.9-5.8-5.2-5.9-9.5 0-3.2-0.5-10.1-0.5-10.5z"/>
										<path id="&lt;Path&gt;" class="s61" d="m484.4 303q-0.5-1.7-1.1-3.4c1.6 1.3 3.4 2.2 4.3 4.4-1.2-0.3-2.2-0.7-3.2-1z"/>
									</g>
								</g>
								<g id="&lt;Group&gt;">
									<path id="&lt;Path&gt;" class="s3" d="m662.6 188.4c-1.5 13 4.6 34.5 4.6 34.5 0 0-29.5 22.1-26.5 7.4 3.1-14.7 2.4-23.1-0.4-31 0 0 23.9-23.9 22.3-10.9z"/>
									<path id="&lt;Path&gt;" class="s62" d="m689 125c2.1 6.8 1.5 13.8 1.1 20.8-0.1 1.2-1 2.1-1.7 3-2.6 3.4-4.4 7.1-5.2 11.2-0.7 3.9-2.5 7-5.2 9.7-2.6 2.6-5.1 5.1-7.8 7.6-2.2 2.1-4.6 4.2-4.8 7.6-0.1 1.2-1.1 0.6-1.6 1.1-0.7 0.2-1.1-0.3-1.6-0.8-2.5-3.9-4.4-8.1-6.4-12.3-0.9-1.9-0.6-3.7 0.7-5.3 0.9-1.1 1.9-2 2.6-3.2 1.2-1.6 1.7-3.4 2-5.3 1.3-6.7-2.9-10.7-9.6-9.2-1.8 0.4-3.4 1.3-5 2.2-2.2 1.3-2.5 1-2.6-1.7q-0.1-0.6 0-1.2c0.3-5.5-0.5-10.4-5.2-13.9-3.3-4.6-3.9-5 1.1-10.7 3.9-4.4 8.7-7.5 14.6-8.8 4.8-1.2 9.6-2.9 14.7-3 2 0 4.1 0.1 5.9 1.2 5.1 3.1 10.2 6.2 14 11z"/>
									<path id="&lt;Path&gt;" class="s63" d="m639.2 135c6.9 4.1 5.4 10.7 5.3 17.3 3.9-2.5 7.7-4.5 12.4-3 4.4 1.3 6.1 3.8 5.4 8.3-0.4 2.6-0.6 5.3-2.7 7.3-3.2 3.3-7.1 4.5-11.5 4.3 2.1 0.9 3.3 2.5 2.5 4.8-1.2 4-1.8 8.1-4.3 11.6-2.2 3.1-4.7 5.5-8.2 7-3.3 1.4-5.7 1.2-9 2.7-3.9 1.9-15.4 0.3-16.3-0.8 0.2-2.8 2.5 1 4-0.9 1.1-1.4 3.6-2.6 3.1-4.3-0.5-1.6-3.2-1.1-4.9-1.6-1.4-0.3-2.9-0.6-4.3-0.8-2-0.4-3.3-1.2-3.2-3.5q-0.4-0.7-0.9-1.5c1.8-1 3.7 0.3 5.6-0.2-1.9 0.2-3.8-1.2-5.6 0.2-1-2-1.1-4 0.4-5.8 4.1 0.2 8.1 2.1 12.3 1.2 1.1-0.2 2.2-0.4 3.4 0.2 0.1-1.3-0.4-1.9-1.2-1.4-3.6 2.3-7.2 1-10.8 0.2-1.2-0.3-2.4-0.9-3.7-0.7-0.3-2.1-0.2-6.3-1.4-8.3 1.1-0.8 2.4 1.8 3.5 2.2 1.2 0.3 2.3 0.3 3.5-0.2-2.2 0.1-4.1-0.8-5.9-1.7-0.6-0.3-1.3-3.3-0.8-4.4 2.5-0.2 4.5 2.1 5.3-1 0.8-2.5 3.6-2.4 5.7 0.1 2.8 3.3 5.8 6.5 8.8 9.7 0.4 0.5 0.7 1.1 1.6 1.2q1.9-4.6 4.4-9c1.5-2.6 3.2-5 5.5-7 2.9-2.4 2.5-6 2.9-9.5-4.1 2.2-7.8 4.7-12.6 3.1-0.6-1.6 0.4-2.9 1-4.2 1-2 2-3.9 4.1-5 0.1-1.3-1-1.4-1.7-2-0.6-0.4-1.4-0.7-0.6-1.6 1.1-0.6 1.5-1.5 1.4-2.7-0.5-3.7 0.3-7.2 1.7-10.5 1-2.3 0.2-3.5-2.2-3.7-4.2-0.3-8.3-0.3-11 3.9-0.4 0.7-0.9 1.5-2 1.1 0.3-1.9 1-3.7 1.6-4.9 0.6-0.9-0.9-0.1-0.3-1 2.1-3.8 5.3-4.9 9.4-4 3.9 0.8 7.7-0.9 11.5-1.3 2.6 0.8 1.1 2.1 0.2 3-2.3 2.3-3.8 5.1-5 8.1-1.4 3.8-1.3 4.2 1.7 6.9 0.7 0.6 1.5 1.2 1.9 2.1z"/>
									<path id="&lt;Path&gt;" class="s62" d="m639.2 135c-1.9-1.6-5.5-2.8-5.5-4.9 0.2-3.8 1.8-7.6 4.4-10.7 0.9-1 2-1.9 2.9-2.9 0.7-0.8 0-0.8-0.5-1 0.7-1.9 2.5-1.3 3.8-1.8 1.3-0.1 2.4-0.6 3.1-0.7-1.2 0.4-2.9 0.6-4.7 0.9-8 2.3-15.7 1.1-23.3-2.1-0.7-0.5-0.2-1.3-0.7-1.9q0 0 0-0.1c-0.6-1.3 17.2-7.2 21.3-8.8 10.3-4.1 51.4 20.4 49.9 26.1-3.8-2-7.7-7.2-11-9.7-4.6-3.6-9.3-4.4-14.6-3.2-6.2 1.4-12.6 2.3-18.1 5.9-2.8 1.9-5.2 4.3-7.4 6.9-1.8 2.2-2.9 4.3-0.1 6.5 0.3 0.3 0.4 1 0.5 1.5z"/>
									<path id="&lt;Path&gt;" class="s64" d="m627.7 150.8c4.2-0.3 8.2-1.1 11.6-4.1 1.2-1 2.3-0.5 2 1.3-0.9 4.1-1.1 8.3-4.8 11.4-4.1 3.5-6.3 8.5-7.9 13.5-0.3 0.8-0.2 1.9-1.1 2.2-1.1 0.2-1.3-1-1.8-1.6-3.1-3.9-6.8-7.2-9.8-11.3-1.4-1.8-3.9-1.4-4.2 0.6-0.6 4-2.7 1.6-5.8 0.6-2.4 1.3-4.1 1.4-6.2 0.8-1.2-2-0.7-5.1 0.6-6.5 3.3-3.6 6.4-4.6 9.6-8.3 3.4-3.9 5.3-8.4 5.3-13.6 0-3.5 2-6.4 3-9.7 3.2-5.4 8.1-6.9 14.1-5.7 2.4 0.5 1.7 1.3 2.2 3.9 6.4 37.1-14.1 11.2-15.9 14.1 2.2 4.3 2.7 8.7 1.1 13.3 2.4-0.4 5-2.2 8-0.9z"/>
									<path id="&lt;Path&gt;" class="s3" d="m635.3 193.1c5.1-2.4 9.5-5.2 11.7-10.5 1.2-2.9 2.1-6 3-9.1 0.7-2.7-1.1-3.6-3.4-3.8-0.6 0-1.4 0.4-1.4-0.7 0-0.7 0.6-0.9 1.1-0.8 5 1 9.2-0.9 13.3-3.3-5.4 4.1-3.1 8.5-0.6 12.9 1.3 2.4 2.5 4.9 3.8 7.3 0.7 1.2-0.4 2.2-0.2 3.3-2.5 2.4-1.8 5.5-1.6 8.3 0.3 4.3 1 8.6 2.2 12.8 0.5 1.7 0.3 3-1.1 4.3-1.9 1.8-3.1 4.2-4.5 6.5-1.2-0.7-1.7-1.9-2.5-2.9-1.7-0.8-1.5-2.4-1.5-3.9 0.1-9.1-1.9-18.1-3.2-27.7-2.3 3.2-4.2 5.9-6.5 8.2-1.1 1.1-0.7 2.3-0.1 3.6 1.2 2.8 2.1 5.7 2.5 8.8 0.1 1 0.7 2.7-1.4 2.7-1.9-3.1-3.4-6.4-4.6-9.8-1.2-3-2.8-3.8-5.6-2.2-4.4 2.6-23.5-2.6-27.7-5.6 1.8-2.4 21.1 5.1 28.3 1.6z"/>
									<path id="&lt;Path&gt;" class="s3" d="m644.9 209.1c1.3-0.5 0.8-1.5 0.7-2.5-0.5-3.3-1.4-6.4-2.9-9.4-0.9-1.6-0.9-2.5 0.5-3.8 2.9-2.6 5-5.9 7.4-9.7 1.5 6.7 2.3 12.9 3.1 19 0.5 4 1.2 8 0.6 12-0.2 1.1 0.5 1.8 0.8 2.7-5 0.9-5 0.9-7.7-3.5-0.9-1.6-1.7-3.2-2.5-4.8z"/>
									<path id="&lt;Path&gt;" class="s63" d="m607.6 190.2c1-2.3-0.3-4.4-0.1-6.8 0.4 1.8 1.7 2.4 3.4 2.7 2.9 0.4 5.8 1 8.7 1.7 0.8 0.1 1.9-0.1 2.2 0.9 0.3 0.9-0.7 1.4-1.2 2-2.5 3-14.5 2.8-13-0.5z"/>
									<path id="&lt;Path&gt;" class="s3" d="m607 175.6c0.7-1.5 1.7-1.1 2.9-0.6 2.8 1.2 5.7 1.7 8.7 1.5 0.6-0.1 1.2 0 1.8-0.4 2.3-1.9 2.9-1.7 3.6 1.3 0.2 0.5 0.3 1-0.3 1.7-1.6-1.4-3.5-1.2-5.6-0.9-3.8 0.4-7.6-0.2-11.1-2.1q0-0.2 0-0.5z"/>
									<path id="&lt;Path&gt;" class="s3" d="m599.5 163.3c2.4-1.1 4.2 0.4 6.4 0.1 2.7 2 5.5 5.6 9.4 4.4-1.8 2.9-3.9 3.3-6.3 2.5-1-0.3-0.6-1.1-1.8-1.4-2.6-0.7-7.3-2.5-7.7-5.6z"/>
									<path id="&lt;Path&gt;" class="s62" d="m618.7 109.9c0.5 0.4 0.5 0.9 0.5 1.4 3.7 1.7 3.7 1.7 1.6 5.1-0.9 1.5-0.9 3.1-1 4.8-0.2 1-0.5 2.3-1.2 2.3-2.3-4.5-1.7-9.5 0.1-13.6z"/>
									<path id="&lt;Path&gt;" class="s65" d="m662.6 188.4c-0.6-1.1 0.1-2.2 0.2-3.3q0.5 0.5 1 0.9-0.6 1.2-1.2 2.4z"/>
									<path id="&lt;Path&gt;" class="s66" d="m619.8 121.2c-1.2-1.7-1.3-3.9 0.1-5 2.8-2.3 1.3-3.5-0.7-4.9 5.9 1.7 11.8 3.2 18.1 2.9 2.1-0.1 4.1-0.8 6.2-0.8 0.8-0.2 1.4-0.2 1.2 0.9-1.5 0-2.9 0.3-4.2 1.2-4.3 1.3-8.6 2.4-13.1 1.4-3.9-1-5.7 1.7-7.6 4.3z"/>
									<path id="&lt;Compound Path&gt;" class="s63" d="m627.7 150.8c-3.4 0.3-6.6 1-10.2 2.5 3.7-5.2 2.6-10.1 0.3-14.9 1.3-0.9 2.7-0.3 4.1 0q0.3 0.1 0.7 0.3c2.9 0.4 6 1.2 7.5 2.3 1.1 0.9 2.5 1.1 3.8 1.2-1.6 10-3.8 8.3-6.2 8.6z"/>
									<path id="&lt;Path&gt;" class="s3" d="m606.6 181.9c0.2-1.6 1.1-1.8 2.5-1.5 1.6 0.4 3.2 0.9 5.3 0.5-2.6 3.2-5.3 1.2-7.8 1z"/>
									<path id="&lt;Path&gt;" class="s67" d="m644.7 114.3c-0.2-0.5-0.7-0.8-1.2-0.9 2-0.7 4.1-1.1 6.4-0.6q-2.6 0.8-5.2 1.5z"/>
									<path id="&lt;Path&gt;" class="s64" d="m622.8 141.3c2.4 0.3 4.4 1.5 5.9 3.3 1.3 1.4 1.3 3.8 0.1 3.8-2.6 0.4-5.7-2.6-7.1-4.9q0.6-1.1 1.1-2.2z"/>
									<path id="&lt;Path&gt;" class="s68" d="m621.7 143.5c4.5 1.4 8.6 4.1 7.9 5.9q-0.4 0-0.7 0c-1.3 0.3-2.1-0.8-3-1.3-1.4-0.7-3.2-0.8-4.1-2.4-0.8-0.7-1.1-1.4-0.1-2.2z"/>
									<path id="&lt;Path&gt;" class="s69" d="m623.7 150c0.5-0.9 1.4-2.1 2.5-2.7 1.6 0.8 1.8 1.4 2.7 2.1-1.1 1.6-3.8 1-5.2 0.6z"/>
									<path id="&lt;Path&gt;" class="s70" d="m621.8 145.7c0.8-0.2 2.3 1.1 3.8 2 0 0.9-0.2 1.8-1.1 2.4-2.7 0-3.1-1.5-2.7-4.4z"/>
								</g>
								<path id="&lt;Path&gt;" class="s71" d="m632 236.8c6.5-3.7 12.1-4.8 19-7.6 2.2-0.9 3.7 0.6 5.4 1.3 3.7 1.4 7.4 2.8 11 4.3 3.2 0.6 4.2 3.1 5.3 5.7 2.7 6.4 5.3 12.9 8 19.3 2.4 5.5-0.9 1.7-0.4 0.9 1.6-2.7 1.8-3.7-0.7-5.8-5.7-4.9-2.1-11.8-7.2-17.5-1.2-1.3-2.3-2.7-3.7-3.8-1.8-1.5-3.1-3.4-4.8-4.9-1.6-1.3-3.2-2.6-4.7-4-0.6-0.5-1.4-1.1-0.8-2 0.4-0.7 1.3-0.4 1.9-0.1 2.9 1.3 5.9 2.1 8.2 4.4 1.8 1.7 4.5 1.8 5.9 3.2-1.6-2.5-3.7-5.3-4.9-8.5-0.4-1.2-2-5.5 1.5-2.7 2.1 2.7 4.5 5.3 6.4 8.2 37.4 46.4 14.4 56.4 4.8 55.7-0.9-0.1-1.6-0.1-1.6 1.1 0.1 9.3-3.4 18.4-3.5 27.7-0.1 10.7-1.6 21.3-2.1 31.9-0.7 13.4-1.2 26.9-3.1 40.2-1.5 10.8-7.6 38.8-10.7 38.8-2.8-1.3-2-8.5-1.1-11.7q7.1-26.1 8.2-53.3c0.6-15.3 2.1-30.7 2.7-46.1 0.4-9.3 3.2-18.3 2.6-27.6 1.1-26.8-4.5-54.3-30-46.9-4.9 1.8-10 2.7-14.8 5-0.6 0.4 1.7-4.4 3.2-5.2z"/>
								<path id="&lt;Path&gt;" class="s62" d="m620.9 118.2c-1.7-0.5-3.2-2.2-5.4-1.3-0.6 0.3-1.1-0.4-1-1.2 0.4-3.3 0.3-6.7 1.4-9.8 1.3-3.7 4.3-6 8.1-7.2-0.6-1-1.8-0.3-2.2-1.4 3.7-2.4 8.1-3.5 12.2-2.9 5.6 0.9 11.3 1.7 16.7 3.5 6 2.1 10.5 6.4 15.4 10.1 2.4 1.8 4.7 3.7 7 5.5 2.2 1.8 4.8 3 7.3 4.4 6.7 3.8 11 9.5 12.3 17.5 1.2 7.4-1.2 13.5-5.3 19.3-3 4.3-6.2 8.6-9.3 12.8-0.9 1.2-1.9 2.4-3.6 1.9-1.6-0.5-1-2.1-1.4-3.3-1.2-3.1 0.8-4.8 2.3-6.8 1-1.3 1.8-2.4 0.4-4-0.7-0.8-0.3-1.8 0.3-2.7q1.3-2 2.6-4.1c2.3-3.3 3.3-6.9 3.1-10.9 0-1.5-0.4-3.2 0.7-4.6 0.5-0.8 0-1.4-0.4-2-1.7-2-3-4.5-6.2-4.4-1.3 0-2.2-1.1-3.1-2-1.6-1.8-3.5-3.3-5.7-4.3-0.1-0.2-0.2-0.3-0.4-0.4-2.1-0.6-3.3-3.1-5.3-3.3-2-0.2-3.4 2.1-5.4 2.6-0.8 0.2-1.6 0.4-2.4 0.2-3.7-1.2-6.5 0.6-9.2 2.9-0.4 0.4-0.8 0.9-1.3 1.3-4 3.3-5.5 7.1-2.3 11.8 0.2 0.3 0.2 0.7 0.1 1.1-6.2-1.7-9.5-6.1-11.2-12-1-2.9 0.1-7 2.7-9.1-2.6 0.4-5 0.9-7.2 2.2-1.3 0.8-2.7 1.7-4.3 0.6z"/>
								<path id="&lt;Path&gt;" class="s72" d="m682.4 268c-2.9 18.5-6.1 41.2-7.3 59.9-0.7 10.3-1.8 20.6-2.5 30.9-0.7 9.3-6.4 64.4-12 63.9-12.2-0.9-34-8.1-44.1-12.3-6.3-2.5-15.5-3.6-21-7.2-5.5-3.6 1.6-32.8 2.1-36.6 1.4-11.8 5.8-22.1 7-33.9q0.1-0.4 0-0.8c-3 2.9-5.9 5.9-9.6 8.1-2.8 1.6-5.7 1.9-8.8 0.9-16.2-5.3-53.5-1.8-70.1-5.5-2.6-0.6-5.3-0.8-7.9-1.3-2.8-0.1-5.5-0.7-7.8-2.9-1.8-1.5-3.1-0.3-3.9 1.5 0.4-2.4-0.9-4.5-1-6.8-0.3-3.4-0.1-6.6 1-9.8 1.5-4.6 4.7-7.3 9.5-8.3 2.5 0.1 5 0.4 7.5 1.1 15 1.2 47.5-4 61.1-4.6 4.8-0.2 9.2-1.9 12.6-5.7 3.5-4 6.2-8.4 9.1-12.7 5.1-7.5 10.3-15 15.4-22.4 0.7-1.5 16.9-23.4 21.5-27.2 3.1-2.5 6.7-4.3 10.3-6 7.1-3.2 13.5-7.5 20.3-11.2 2.4-1.4 4.2-1.6 4.6-0.9 9.2 17.2 17 30.8 14 49.8z"/>
								<path id="&lt;Path&gt;" class="s59" d="m606 181c-0.3-1.7-1.1-4.1-1.2-6-0.3-3.2 0.1-5.8-0.9-7.8 1.1-1.1 3.3 0.9 4.6 0.6 2.5-0.6 3-1.5 2.3-3.9-0.9-3.3 1.2-5.4 2.9-7.6 0.4-0.5 1.1-0.7 1.7-0.2 0.9 0.6 0.7 1.7 0.7 2.7-0.2 1.2 0.7 2 1.3 2.9 4.8 3.2 9.9 1.5 15 1.1 2-0.2 3.9-0.9 5.5-2.4 1.4-1.4 3.2-1.4 5-1 0.6 1 0.6 2.3 1.4 3.2-0.4 1.7-1.6 3 0.1 5.1 1.6 1.9-2.1 7.6-4.7 8.1-0.6 0.1-1.2 0-1.5-0.7-0.5-1-1.2-1.2-2.2-0.7-1 0.4-1.8 0.9-1.7 2.1 0.1 0.9-0.2 1.8-0.9 2.5-0.9 0.9-1.3 1.6-0.6 2.9 0.6 1.1 0.1 2.8-1 3-3.2 0.6-3.7 4-6.2 5.2-0.3 0.2-0.5 0.6-1.2 0.8 0.7-0.2 0.9-0.6 1.1-0.8 3.3-0.3 6.7 0.9 9.8-1.3 1.1-0.8 2.4-1 3.3 0.4 1 1.5-0.1 2.4-1.3 3.2-0.5 0.6-1.1 1.2-1.6 1.9-4.2 1.6-8.5 2.8-13 2.3-1.8-0.2-3.6-0.3-5.4-0.3-4.5 0.1-8.2 1.9-11.7-0.9-1-1.6-0.3-6-0.1-7.7 0.3-2.4 1-4.6 0.5-6.7 3.9-1.8 8-0.5 12.2-1.1-0.4-1.3-0.4-2.3-2.5-1.1-2.1 1.4-4.7 0.5-6.9-0.6-1.2-0.7-1.6 2.1-2.8 2.8z"/>
								<path id="&lt;Path&gt;" class="s62" d="m640.9 136.5c-0.5-0.8-1-1.6-1.3-2.4-2.2-4.6-1.8-5.9 1.8-9.5 2.5-2.6 4.7-5.3 8.5-6.1 0.7-0.2 1.4-0.7 2.2-0.2 3.1 1.5 5.5-0.1 7.5-2 1.2-1.1 2-1.1 2.9 0 1.4 1.4 3.5 2.2 4.6 4-6.3-1-11.7 1.5-16.8 4.7-1 0.6-2.2 1-1.6 2.6 0.1 0.4-0.1 0.9-0.3 1.3-1.6 4-0.5 6.4 4 7.8 1.5 0.4 3.5 0.7 3.5 2.7 0 2.2 1.3 4.9-1.6 6.5-0.7 0.6-1.4 0.4-2.1-0.2-3.1-3.8-7.9-5.7-11.3-9.2z"/>
								<path id="&lt;Path&gt;" class="s73" d="m631.8 239.2c-0.4 0.2-2.9 2.3-3.4 2.4 2.8-7.3 8.6-9.5 12.5-11.5 5.3-2.7 10.5-5.4 15.4-8.6 2.9-1.9 6.1-3.1 9.5-3.6 1.7-0.3 3.7-0.7 5.2 1-2.1-1.1-3.4-0.8-0.8 2.9 2.3 3.2 3.7 6.6 5.6 9.8-5.9-2.4-10.7-7.1-17.6-9 5.4 2.1 14.5 12.6 15.4 15.4-5.9-1.5-16.2-11.6-41.8 1.2z"/>
								<path id="&lt;Path&gt;" class="s74" d="m620.9 118.2c1.6 0 3-0.5 4.3-1.3 2.2-1.5 4.7-1.9 7.5-2.1-1.8 3.2-3.1 6.2-3 9.7-4.4 3.8-9.4 6.7-12.7 11.6-0.6 0.9-0.4 1.8-0.1 2.8 0.7 1.9 0.7 3.9 0.4 5.8-0.2 1.3-0.8 2.4-2.2 2.1-1.4-0.2-1.8-1.3-1.3-2.7 0.7-1.9-0.2-3.6-0.7-5.4-0.5-1.8-0.2-3.2 0.9-4.7 1.7-2.2 3.1-4.6 4.6-6.9 0.3-0.4 0.6-0.9 0.6-1.2-0.9-2.9 1-5.1 1.7-7.7z"/>
								<path id="&lt;Path&gt;" class="s75" d="m605.5 192.2c1-0.5 1.7 0.1 2.4 0.7 1.5 1.3 3.4 2.1 5.3 2.3 7.7 0.8 15.5 1.7 23-1.7 0.3-0.7 1.1-0.2 1.6-0.6 1.8-0.4 3.4 0.7 5.2 0.9 0.9 0.2 1.2 1 1.2 1.9-0.1 1.1-0.9 1.7-1.9 2-4.9 1.2-9.9 2.7-15 2.7-6.6-0.1-13.2 0-19.4-3.1-2.2-1-3.3-2.6-2.4-5.1z"/>
								<path id="&lt;Path&gt;" class="s74" d="m615.4 159.4c-0.2-1 0.7-2.5-0.4-2.9-1.3-0.4-1.8 1.2-2.2 2.2-0.8 1.6-2.4 3.1-1.5 5.3q-2.8 4.5-8.6 1.1c-1-0.9-2.1-0.3-3.1-1.3-0.7-0.7-0.7-3.2-0.1-4.1 0.5-0.8 1.6-1 2.1-0.5 4 3.4 5.4-0.8 7-2.8 2-2.4 4.2-4.5 6.4-6.7 0.5-0.5 1.1-1.1 1.9-0.7 0.7 0.4 1.1 1 0.8 2-0.2 0.4-0.3 1.1-0.2 1.2 3.1 2.3-0.2 5.4 1 7.8 0.1 0.1-0.3 0.4-0.5 0.7-1.4 0.7-2-0.3-2.6-1.3z"/>
								<path id="&lt;Path&gt;" class="s76" d="m644.6 161.2c-2.7-0.1-1.2-0.7-1.7-1.8 0-3.8 3.3-15.7-0.2-21.3-0.9-1.5 5.5 4.7 6 7.8 1.1 2.3 2.4 1.7 4 0.9 0.4-0.4 1-0.4 1.6-0.3 1.2 0.1 2.3 0.3 3.4 0.5 1.3 0.3 2.7 0.8 2.3 2.4-0.2 0.6 0 1.1-1.2 0.7-3.4-0.9-5 0.1-6.5 0.8-1.7 0.7-2.9 1.8-3.7 3.6-1.3 2.7-2 4.3-4 6.7z"/>
								<path id="&lt;Path&gt;" class="s77" d="m619.7 136.8c3.3-0.5 6.3-0.6 9.2 0.2q2.2 0.6 3.7 2.2c0.6 0.8 2.3 2.6 1.3 3.5-1.1 1-3-0.6-3.7-1.4-1.2-1.3-4.3-2-6-2.3-2.1-0.3-2.3-1.1-4.5-2.2z"/>
								<path id="&lt;Path&gt;" class="s78" d="m600.9 163.4c0.6 0.5 3.3 1.7 3.9 2 2.6 1.2 4.6 0.2 6.5-1.4 1.5 2.4 0.2 4.3-3.2 4.6-1.2 0.1-3-2.1-4.2-2.2-1.6-0.5-3.4-2.6-3-3z"/>
								<path id="&lt;Path&gt;" class="s62" d="m665.9 184.7c0 1.3-0.5 2.4-1.3 3.4-0.5 0.5-0.9 0.9-1.6 0.5-0.7-0.4-0.6-1.1-0.2-1.6 1.1-1.5 0.9-3.1 0.5-4.8-0.2-1-0.2-2.2 1.1-2.3 1.5-0.3 1.3 0.8 1.2 1.9-0.1 0.9 0.2 1.9 0.3 2.9z"/>
								<path id="&lt;Path&gt;" class="s73" d="m663.8 226.4c23.1 20.5 4.8 8.4-2.2 7.1 0.8-0.7 1.4-6.4 2.2-7.1z"/>
								<path id="&lt;Path&gt;" class="s79" d="m604.9 174.8c0.5-0.3 1.5 0.8 2.4 1.3 1.8 1.2 4.3 1 6.4 0.9 0.6 0 2.3 0.2 2.6-0.6 0.3-0.9-0.1-1.9 0.8-1.1 0 0 0.2 1.6 0.5 2.3 0.3 0.7 1.2 0.9 1.2 1.7 0 0.2-0.6 0.6-0.8 0.5-3.9-1.7-7.9-0.5-11.9-0.3-0.2 0-0.4-0.1-0.5-0.2-1-1.1-1.1-4.3-0.7-4.5z"/>
								<path id="&lt;Path&gt;" class="s80" d="m644.5 286.1c-3.4 3.4-22.8 27-36.8 44.2-6.9 8.5-31.5 7.7-55.8 5.1-24.4-2.7-41.8 2.8-48.6 1.8-6.8-1-9.5-3.6-7.9-15.7 1.6-12.2 8.4-13.8 10.6-13.7 0.1 0-3.4 1-4.5 3-2.7 5-4.6 14-2 15.7 8.6 5.6 39 0.4 69.2 3 2.5 0.3 23.4-1 36.5-10.7 2.9-2.2 29.8-35 31.6-34.9 1.9 0.1 7.7 2.2 7.7 2.2z"/>
								<path id="&lt;Path&gt;" class="s81" d="m484.4 303q-2.2-0.6-4.3-1.1c-0.6-0.2-0.8-0.4-0.9-1q-0.1-0.4-0.2-0.7l0.8-0.4c0 0-0.5-3.3-0.7-5.7-0.1-1.8 0.6-3.2 1.5-4q0.1 0.2 0.2 0.4c-1.2 3.1 0.1 5.7 1.8 8.1 0.3 0.3 0.7 0.6 0.7 1 0.8 1 1.1 2.1 1.1 3.4z"/>
								<path id="&lt;Path&gt;" class="s63" d="m647.7 158.3q0-0.1 0.1-0.3c1.3-3.6 1.2-4.3 2.4-5.9 1.4-1.5 6.2-4.8 10-1.2 3.9 3.6-1 11.5-1.6 12.1z"/>
								<path id="&lt;Path&gt;" class="s59" d="m615.2 183.4c1.8 0.6 18.8 7.6 16.6 10.2-2.2 2.6-7.3 2.3-14.8 2-7.6-0.3-10.6 1.6-11.6-0.5-0.9-2.2 0.1-6.9 0.5-9.5 0 0 7.6-2.9 9.3-2.2z"/>
							</g>
						</g>
					</g>
					<path id="&lt;Path&gt;" class="s82" d="m595 392.5c-6.9 4.6-24.7 9.1-68 12.8-39.7 3.3-93.8 5.1-152.3 5.1-55.1 0-109.1-1.7-148.2-4.7-21-1.6-37.4-3.5-48.9-5.7-7.9-1.5-13.3-3.1-16.6-5q0.3-2.6 0.8-5.7h1c0-0.2 0-0.4-0.1-0.4 0.4 0.5 4.9 5.6 52.8 9.9 29.9 2.7 71.2 4.5 116.4 5.3 80.4 1.2 184-1.2 234.2-9.5 25.7-4.2 27-8.3 27-8.5h1c0.3 2.3 0.7 4.5 0.9 6.4z"/>
				</g>
				<path id="&lt;Path&gt;" class="s83" d="m649.1 306.4c-2.6-1.5-3.7-3.4-5-5.1-1.3-1.9-2.4-1.9-3.9-0.1-7.3 8.6-31.8 42.9-33.2 46.2-4.9 18.8 11.9 58.3 27 61.2 16.7 3.3-1.4 9.7-34.9-3.5-1.3-0.6-2.6-1.2-3.6-1.9-5.5-3.6 1.6-32.8 2.1-36.6 0.6-4.9-0.5-9.2 0.7-13.8 0-4.7 2.3-9.8 2.7-14.5-0.7-0.5-1.1 0-1.5 0.3-6.9 5.2-14.7 5.3-22.8 4.7-14.8-1.1-29.4-3.7-44.1-4.4-4-0.2-8.5-0.5-12.5-0.2-6.6 0.5-12.9-0.2-19.2-2.1-2-0.6-3.3-0.8-4.6-2.5-0.4-0.5-0.4-1.2-0.2-1.8 1.4-2.4 2.7-3 4.7-1.6 3.8 2.6 86.8 13.8 103.8 1.2 4.3-3.1 7.4-6.5 11.4-9.9 1.4-1.2 17.5-20.7 23.9-28.2 1.5-1.8 2.9-1.7 3.8 0.4 1.7 3.8 3.4 7.7 5.4 12.2z"/>
				<path id="&lt;Path&gt;" class="s83" d="m674.7 248.5c-9.7-18.1-29.9-14.2-29.9-14.2 0 0 15.8-3.4 25.9 4 14.6 10.7 10.5 37.5 9.9 46.7 0 0 3.2-19.3-5.9-36.5z"/>
				<path id="&lt;Path&gt;" class="s71" d="m665.8 217.9c4.7-1.3 4.7 0.6 8.2 4.7 3.4 4.1 3.7 7.1 3.6 7.7-0.1 0.6-2.2 0.6-5.8-5.9-3.5-6.5-12.1-4.8-16.7-2.1 0 0 6-3.2 10.7-4.4z"/>
				<path id="&lt;Path&gt;" class="s83" d="m673.3 242.1c-0.3-2.4 2.5 0.4 4.9 6 3.3 8 6.8 20.9 7.9 24.8 1.1 3.8 2.7 4.3 7.2 1.1 4.4-3.1 3.6-13.4 3.6-13.4 0 0 6.3 20.3 0.8 23.3-5.4 3-14.7 7.3-14.7 7.3 0 0-6.1 55.4-7 68.9-0.9 13.4-9.4 57.9-11.8 61.7-2.4 3.7-14 3.1-26.6-1.4-12.6-4.5-34.2-13.5-34.7-13-0.5 0.5-5.9-2.3-5.9-2.3l1.3-16.5c0 0-2.8 14.6 25.2 18.8 19.6 2.9 33.4 2.5 36.4-9.1 3-11.6 7.4-22.5 8.4-56 1-32.1 11.5-79.1 5.4-95.5-0.8-2-0.2-2.4-0.4-4.7z"/>
				<path id="&lt;Path&gt;" class="s38" d="m456.5 545.7c5.9 2.7 53.3 8.7 53.3 8.7 0 0 0.4-5.5-0.3 5.7-0.8 11.2-4.1 10.7-4.1 10.7-28.7-1.7-44.7-5.5-49.4-8 0 0-2.3 0.5-2-5.7 0.3-6.2 0.9-12.1 2.5-11.4z"/>
				<path id="&lt;Path&gt;" class="s84" d="m509.2 595.3c0.5 2.4 0.3 4.9-0.6 7.2-1.1 1.1-2.5 1-3.9 0.9-14.6-0.9-61.4 5.4-73 5.1-6.4-0.2-21.8-1.1-27.4-1.9-0.5-9.3 9.2-12.2 20.8-13.1 9.7-0.7 18.3-7.6 27.1-10.7 5.4-2 11.1-8 13.8-8.8 0.7 0 1.6 0.4 2.6 1.2 3.1 3 6.3 6.4 7.6 7.1q0.2 0.1 0.4 0.2c1.8 1.8 3.3 3.3 4.1 3.7 13.2 6.9 21.2-2.2 24.2-7 2.5 5 3.3 10.6 4.3 16.1z"/>
			</g>
			<g id="&lt;Group&gt;">
				<g id="&lt;Group&gt;">
					<g id="&lt;Group&gt;">
						<g id="&lt;Group&gt;">
							<path id="&lt;Path&gt;" class="s85" d="m87.6 592.9l-12.5-2.6c0.2-0.9 18.6-89.4 18.6-150.6 0-83.1-20.1-150.1-26.7-172.1-2.2-7.2-2.7-9-2.7-10.7h12.8q0-0.2-0.1-0.6c0.2 0.8 1.2 4.3 2.2 7.6 6.8 22.4 27.3 90.8 27.3 175.8 0 62.6-18.1 149.5-18.9 153.2z"/>
						</g>
						<path id="&lt;Path&gt;" class="s47" d="m257.7 452.5h-155.3l3.2-28h152.1z"/>
						<path id="&lt;Path&gt;" class="s85" d="m259.3 496.8h-161.8v-13.3h161.8z"/>
						<g id="&lt;Group&gt;">
							<path id="&lt;Path&gt;" class="s85" d="m263.2 592.5l-19.9-163.2 15-1.8 19.9 163.2z"/>
						</g>
						<g id="&lt;Group&gt;">
							<path id="&lt;Path&gt;" class="s47" d="m59.9 614.1l-12.7-2.7c0.2-0.9 18.5-89.3 18.5-150.5 0-83.2-21.6-157.6-28.7-182.1-2.3-8.1-2.8-9.8-2.8-11.5l8.1-7.8c-0.6-5 4.3 0 4.2-0.2 0.2 0.9 1.9 11.9 3 15.9 7.2 24.9 29.2 100.7 29.2 185.7 0 62.5-18 149.5-18.8 153.2z"/>
						</g>
						<path id="&lt;Path&gt;" class="s47" d="m226.5 473.6h-151.9v-28.8h151.9z"/>
						<path id="&lt;Path&gt;" class="s47" d="m231.4 518h-161.8v-13.4h161.8z"/>
						<g id="&lt;Group&gt;">
							<path id="&lt;Path&gt;" class="s47" d="m235.3 613.6l-19.8-165.7 15-1.8 19.9 165.7z"/>
						</g>
						<path id="&lt;Path&gt;" class="s86" d="m226.9 445.5l30.8-21 2.7 26.7-30.4 19.7z"/>
						<path id="&lt;Path&gt;" class="s86" d="m77.5 457.1c-1.9-1.2-1.5-4.4-0.6-10.1 0.9-5.6 24.9-18.6 30.5-19.6 5.7-1.1 32.4-5.7 71-6.2 38.5-0.6 77.4 4.6 79.3 7.2 1.9 2.7 2.6 7.7 1.5 10-1.2 2.4-24.5 17.2-30.2 19.2-5.7 2-149.7 0.6-151.5-0.5z"/>
						<path id="&lt;Path&gt;" class="s50" d="m77.5 453.1c-1.9-1.1-1.5-4.3-0.6-10 0.9-5.7 24.9-18.6 30.5-19.7 5.7-1.1 32.4-5.6 71-6.2 38.5-0.5 77.4 4.6 79.3 7.3 1.9 2.7 2.6 7.6 1.5 10-1.2 2.3-24.5 17.1-30.2 19.1-5.7 2-149.7 0.7-151.5-0.5z"/>
					</g>
					<path id="&lt;Path&gt;" class="s51" d="m77.9 442.7c-5.6 0.9 16.5-17.1 27.8-19.1 6.2-1.1 32.8-6 71.4-6.6 38.6-0.5 77.2 4.2 79.1 6.9 0.4 0.6-6.1 2.6-12.3 6.2-9.7 5.7-15.1 12.6-20.5 12.1-94.8-8.7-129.1-1.9-145.5 0.5z"/>
					<path id="&lt;Path&gt;" class="s50" d="m39.4 268.9c-1.4-5.2 1.7-10.6 7-12l30.5-7.8c5.3-1.3 10.7 1.9 12.2 7.1l11.7 43.3c1.4 5.3-1.8 10.3-7 12.1l-29.9 10.2c-5.1 1.8-10.3-0.3-11.8-5.6z"/>
					<path id="&lt;Path&gt;" class="s47" d="m35.4 268.2c-1.5-5.4 1.8-10.9 7.2-12.3l31.3-8c5.4-1.4 11 1.9 12.4 7.3l12 44.4c1.5 5.4-1.6 11.3-6.9 13.1l-30.8 10c-5.3 1.8-10.7-0.5-12.1-5.9z"/>
					<path id="&lt;Path&gt;" class="s50" d="m38.2 268.4c-1.5-5.2 1.7-10.6 7-12l30.5-7.8c5.2-1.3 10.7 1.9 12.1 7.1l11.7 43.3c1.4 5.3-1.6 11-6.8 12.8l-29.9 10.3c-5.1 1.7-10.5-1.1-11.9-6.4z"/>
					<path id="&lt;Path&gt;" class="s51" d="m64.6 259c-2.7 0.3-12.6 12.1-15.1 7.9-2.3-4-8.7-1.7-11.6-0.2-0.4-4.7 0.6-9.5 6.2-11.5 0 0 42.4-16.2 49-5.3-1 0.2-7.9 5.2-9.2 5.4-11.1 2-16.6 3.5-19.3 3.7z"/>
					<path id="&lt;Path&gt;" class="s48" d="m49.1 265.7c-1.3-5.2 2-10.5 7.2-11.7l28.3-7.1c5.2-1.3 10.5 2 11.8 7.2l10.7 42.9c1.3 5.3-1.8 10.9-6.9 12.5l-27.8 9.6c-5.1 1.6-10.3-1.3-11.6-6.5z"/>
					<path id="&lt;Path&gt;" class="s48" d="m83.3 315l-20.5 7.1c-4.7 1.6-9.6-0.7-11.5-5.2 3.4 2 10.4 3.3 10.6-1.9 0.1-6 16.1-3.2 17.3-3 1.1 0.2 4.8 0.2 4.8 0.2l8.7-4.3 4.9-2.8 1.8-0.3q-0.5 1.4-1.3 2.7z"/>
				</g>
				<path id="&lt;Compound Path&gt;" fill-rule="evenodd" class="s87" d="m250.4 611.7l-7.6 1-19.5-155.5c0 0 33.4 5.7-42-7.8-51.9-9.3-36.7-22.7-12.6-32.2q4.1-0.1 8.4-0.2c36.2-0.5 72.5 3.7 78.4 6.4 1.2 0.4 2 0.8 2.2 1.1 1.6 2.3 2.4 6.3 1.8 8.8 0.3 1.5 0.3 2.9 0 4.1l18.7 153.3-15 1.8-11.7-95.7h-14.9zm-15.4-128.2h14.9l-2.9-23.6-13.7 9z"/>
			</g>
		</g>
	</g>
</svg>